G04 #@! TF.GenerationSoftware,KiCad,Pcbnew,(5.1.2-1)-1*
G04 #@! TF.CreationDate,2019-12-09T19:08:40-07:00*
G04 #@! TF.ProjectId,Snack Machine,536e6163-6b20-44d6-9163-68696e652e6b,rev?*
G04 #@! TF.SameCoordinates,Original*
G04 #@! TF.FileFunction,Legend,Bot*
G04 #@! TF.FilePolarity,Positive*
%FSLAX46Y46*%
G04 Gerber Fmt 4.6, Leading zero omitted, Abs format (unit mm)*
G04 Created by KiCad (PCBNEW (5.1.2-1)-1) date 2019-12-09 19:08:40*
%MOMM*%
%LPD*%
G04 APERTURE LIST*
%ADD10C,0.120000*%
%ADD11C,0.150000*%
%ADD12C,0.155000*%
G04 APERTURE END LIST*
D10*
X159569000Y-57046800D02*
X159569000Y-57196800D01*
X157169000Y-57046800D02*
X157169000Y-57196800D01*
X157169000Y-59596800D02*
X157169000Y-59646800D01*
X157169000Y-60646800D02*
X157169000Y-60496800D01*
X159569000Y-60646800D02*
X159569000Y-60496800D01*
X157569000Y-60846800D02*
X157169000Y-60846800D01*
X157569000Y-60646800D02*
X157169000Y-60646800D01*
X157569000Y-57046800D02*
X157169000Y-57046800D01*
X159569000Y-60846800D02*
X157569000Y-60846800D01*
X157169000Y-59596800D02*
X156769000Y-59596800D01*
X157569000Y-60646800D02*
X159569000Y-60646800D01*
X159569000Y-57046800D02*
X157569000Y-57046800D01*
X120175136Y-93199200D02*
X121379264Y-93199200D01*
X120175136Y-95919200D02*
X121379264Y-95919200D01*
X125723667Y-84807600D02*
X125381133Y-84807600D01*
X125723667Y-83787600D02*
X125381133Y-83787600D01*
X116715200Y-96508467D02*
X116715200Y-96165933D01*
X115695200Y-96508467D02*
X115695200Y-96165933D01*
X123653933Y-98625200D02*
X123996467Y-98625200D01*
X123653933Y-97605200D02*
X123996467Y-97605200D01*
X118286000Y-109145333D02*
X118286000Y-109487867D01*
X119306000Y-109145333D02*
X119306000Y-109487867D01*
X123132867Y-109086000D02*
X122790333Y-109086000D01*
X123132867Y-110106000D02*
X122790333Y-110106000D01*
X115411267Y-106397600D02*
X115068733Y-106397600D01*
X115411267Y-105377600D02*
X115068733Y-105377600D01*
X157789867Y-56410400D02*
X157447333Y-56410400D01*
X157789867Y-55390400D02*
X157447333Y-55390400D01*
X157727667Y-61232400D02*
X157385133Y-61232400D01*
X157727667Y-62252400D02*
X157385133Y-62252400D01*
X148990067Y-55720600D02*
X148647533Y-55720600D01*
X148990067Y-56740600D02*
X148647533Y-56740600D01*
X148084200Y-71565667D02*
X148084200Y-71223133D01*
X147064200Y-71565667D02*
X147064200Y-71223133D01*
X118254600Y-42616400D02*
X118254600Y-46676400D01*
X118254600Y-46676400D02*
X115984600Y-46676400D01*
X115984600Y-46676400D02*
X115984600Y-42616400D01*
X148760000Y-41324600D02*
X148760000Y-45384600D01*
X146490000Y-41324600D02*
X148760000Y-41324600D01*
X146490000Y-45384600D02*
X146490000Y-41324600D01*
X150242800Y-67063600D02*
X150242800Y-64603600D01*
X150242800Y-64603600D02*
X151712800Y-64603600D01*
X151712800Y-64603600D02*
X151712800Y-67063600D01*
X150011000Y-64629000D02*
X150011000Y-67089000D01*
X148541000Y-64629000D02*
X150011000Y-64629000D01*
X148541000Y-67089000D02*
X148541000Y-64629000D01*
X117921000Y-125981600D02*
X117921000Y-131991600D01*
X124741000Y-128231600D02*
X124741000Y-131991600D01*
X117921000Y-131991600D02*
X119181000Y-131991600D01*
X124741000Y-131991600D02*
X123481000Y-131991600D01*
X134741000Y-131991600D02*
X133481000Y-131991600D01*
X127921000Y-131991600D02*
X129181000Y-131991600D01*
X134741000Y-128231600D02*
X134741000Y-131991600D01*
X127921000Y-125981600D02*
X127921000Y-131991600D01*
X144741000Y-131991600D02*
X143481000Y-131991600D01*
X137921000Y-131991600D02*
X139181000Y-131991600D01*
X144741000Y-128231600D02*
X144741000Y-131991600D01*
X137921000Y-125981600D02*
X137921000Y-131991600D01*
X154741000Y-131991600D02*
X153481000Y-131991600D01*
X147921000Y-131991600D02*
X149181000Y-131991600D01*
X154741000Y-128231600D02*
X154741000Y-131991600D01*
X147921000Y-125981600D02*
X147921000Y-131991600D01*
X111431000Y-95391600D02*
X114731000Y-95391600D01*
X114731000Y-95391600D02*
X114731000Y-102291600D01*
X111431000Y-95391600D02*
X111431000Y-102291600D01*
D11*
X151889600Y-48410000D02*
X152829600Y-48410000D01*
X152829600Y-48410000D02*
X152829600Y-51910000D01*
X152829600Y-51910000D02*
X151889600Y-51910000D01*
X147449600Y-51910000D02*
X148389600Y-51910000D01*
X147449600Y-48410000D02*
X147449600Y-51910000D01*
X147449600Y-48410000D02*
X148389600Y-48410000D01*
D10*
X167361000Y-46570000D02*
X167361000Y-44320000D01*
X157861000Y-46570000D02*
X157861000Y-44320000D01*
X157861000Y-42570000D02*
X157861000Y-41720000D01*
X167361000Y-42570000D02*
X167361000Y-41720000D01*
X141600000Y-54530800D02*
X141600000Y-55990800D01*
X144760000Y-54530800D02*
X144760000Y-57190800D01*
X144760000Y-54530800D02*
X143830000Y-54530800D01*
X141600000Y-54530800D02*
X142530000Y-54530800D01*
X164564800Y-57901800D02*
X164564800Y-58831800D01*
X164564800Y-61061800D02*
X164564800Y-60131800D01*
X164564800Y-61061800D02*
X161904800Y-61061800D01*
X164564800Y-57901800D02*
X163104800Y-57901800D01*
X115424333Y-47465600D02*
X115766867Y-47465600D01*
X115424333Y-48485600D02*
X115766867Y-48485600D01*
X118895600Y-44502333D02*
X118895600Y-44844867D01*
X119915600Y-44502333D02*
X119915600Y-44844867D01*
X168807933Y-74201000D02*
X169150467Y-74201000D01*
X168807933Y-75221000D02*
X169150467Y-75221000D01*
X168807933Y-73221000D02*
X169150467Y-73221000D01*
X168807933Y-72201000D02*
X169150467Y-72201000D01*
X157562933Y-70681200D02*
X157905467Y-70681200D01*
X157562933Y-71701200D02*
X157905467Y-71701200D01*
X157486733Y-68729400D02*
X157829267Y-68729400D01*
X157486733Y-67709400D02*
X157829267Y-67709400D01*
X115365000Y-109145333D02*
X115365000Y-109487867D01*
X116385000Y-109145333D02*
X116385000Y-109487867D01*
X121502267Y-121571600D02*
X121159733Y-121571600D01*
X121502267Y-122591600D02*
X121159733Y-122591600D01*
X131502267Y-122591600D02*
X131159733Y-122591600D01*
X131502267Y-121571600D02*
X131159733Y-121571600D01*
X141502267Y-122591600D02*
X141159733Y-122591600D01*
X141502267Y-121571600D02*
X141159733Y-121571600D01*
X151502267Y-121571600D02*
X151159733Y-121571600D01*
X151502267Y-122591600D02*
X151159733Y-122591600D01*
X113591000Y-109145333D02*
X113591000Y-109487867D01*
X112571000Y-109145333D02*
X112571000Y-109487867D01*
X123132867Y-106800000D02*
X122790333Y-106800000D01*
X123132867Y-107820000D02*
X122790333Y-107820000D01*
X165106733Y-51330400D02*
X165449267Y-51330400D01*
X165106733Y-50310400D02*
X165449267Y-50310400D01*
X159861267Y-51381200D02*
X159518733Y-51381200D01*
X159861267Y-50361200D02*
X159518733Y-50361200D01*
X143059333Y-57960800D02*
X143401867Y-57960800D01*
X143059333Y-58980800D02*
X143401867Y-58980800D01*
X145006800Y-66498733D02*
X145006800Y-66841267D01*
X146026800Y-66498733D02*
X146026800Y-66841267D01*
X163929800Y-63717067D02*
X163929800Y-63374533D01*
X164949800Y-63717067D02*
X164949800Y-63374533D01*
X161999400Y-63425333D02*
X161999400Y-63767867D01*
X163019400Y-63425333D02*
X163019400Y-63767867D01*
X155221600Y-58675533D02*
X155221600Y-59018067D01*
X154201600Y-58675533D02*
X154201600Y-59018067D01*
X154845133Y-52545600D02*
X155187667Y-52545600D01*
X154845133Y-53565600D02*
X155187667Y-53565600D01*
X154845133Y-51838400D02*
X155187667Y-51838400D01*
X154845133Y-50818400D02*
X155187667Y-50818400D01*
X151280600Y-43079933D02*
X151280600Y-43422467D01*
X152300600Y-43079933D02*
X152300600Y-43422467D01*
X154354000Y-65622067D02*
X154354000Y-65279533D01*
X155374000Y-65622067D02*
X155374000Y-65279533D01*
X153113400Y-66434867D02*
X153113400Y-66092333D01*
X152093400Y-66434867D02*
X152093400Y-66092333D01*
X149811400Y-71489467D02*
X149811400Y-71146933D01*
X148791400Y-71489467D02*
X148791400Y-71146933D01*
X153164200Y-71146933D02*
X153164200Y-71489467D01*
X152144200Y-71146933D02*
X152144200Y-71489467D01*
X151513200Y-71146933D02*
X151513200Y-71489467D01*
X150493200Y-71146933D02*
X150493200Y-71489467D01*
X164700333Y-54353000D02*
X165042867Y-54353000D01*
X164700333Y-53333000D02*
X165042867Y-53333000D01*
X154531800Y-47689667D02*
X154531800Y-47347133D01*
X155551800Y-47689667D02*
X155551800Y-47347133D01*
D12*
X116034000Y-99950600D02*
X116099000Y-99950600D01*
X116034000Y-99950600D02*
X116034000Y-100515600D01*
X120034000Y-99950600D02*
X119469000Y-99950600D01*
X120034000Y-99950600D02*
X120034000Y-100515600D01*
X116034000Y-103950600D02*
X116034000Y-103385600D01*
X116034000Y-103950600D02*
X116099000Y-103950600D01*
X120034000Y-103950600D02*
X120034000Y-103385600D01*
X120034000Y-103950600D02*
X119469000Y-103950600D01*
D10*
X113565000Y-118645600D02*
X113565000Y-118345600D01*
X118185000Y-118645600D02*
X113565000Y-118645600D01*
X118185000Y-118345600D02*
X118185000Y-118645600D01*
X113565000Y-111925600D02*
X113565000Y-112225600D01*
X118185000Y-111925600D02*
X113565000Y-111925600D01*
X118185000Y-112225600D02*
X118185000Y-111925600D01*
X119075000Y-112225600D02*
X118185000Y-112225600D01*
X148360200Y-57811600D02*
X147885200Y-57811600D01*
X147885200Y-57811600D02*
X147885200Y-58286600D01*
X152630200Y-63031600D02*
X153105200Y-63031600D01*
X153105200Y-63031600D02*
X153105200Y-62556600D01*
X148360200Y-63031600D02*
X147885200Y-63031600D01*
X147885200Y-63031600D02*
X147885200Y-62556600D01*
X152630200Y-57811600D02*
X153105200Y-57811600D01*
X143114800Y-64520800D02*
X141314800Y-64520800D01*
X141314800Y-61300800D02*
X143764800Y-61300800D01*
X135320200Y-61300800D02*
X137770200Y-61300800D01*
X137120200Y-64520800D02*
X135320200Y-64520800D01*
D11*
X155703590Y-59640609D02*
X156179780Y-59640609D01*
X155179780Y-59307276D02*
X155703590Y-59640609D01*
X155179780Y-59973942D01*
X155275019Y-60259657D02*
X155227400Y-60307276D01*
X155179780Y-60402514D01*
X155179780Y-60640609D01*
X155227400Y-60735847D01*
X155275019Y-60783466D01*
X155370257Y-60831085D01*
X155465495Y-60831085D01*
X155608352Y-60783466D01*
X156179780Y-60212038D01*
X156179780Y-60831085D01*
X120943866Y-97196342D02*
X120991485Y-97243961D01*
X121134342Y-97291580D01*
X121229580Y-97291580D01*
X121372438Y-97243961D01*
X121467676Y-97148723D01*
X121515295Y-97053485D01*
X121562914Y-96863009D01*
X121562914Y-96720152D01*
X121515295Y-96529676D01*
X121467676Y-96434438D01*
X121372438Y-96339200D01*
X121229580Y-96291580D01*
X121134342Y-96291580D01*
X120991485Y-96339200D01*
X120943866Y-96386819D01*
X120562914Y-96386819D02*
X120515295Y-96339200D01*
X120420057Y-96291580D01*
X120181961Y-96291580D01*
X120086723Y-96339200D01*
X120039104Y-96386819D01*
X119991485Y-96482057D01*
X119991485Y-96577295D01*
X120039104Y-96720152D01*
X120610533Y-97291580D01*
X119991485Y-97291580D01*
X125719066Y-83224742D02*
X125766685Y-83272361D01*
X125909542Y-83319980D01*
X126004780Y-83319980D01*
X126147638Y-83272361D01*
X126242876Y-83177123D01*
X126290495Y-83081885D01*
X126338114Y-82891409D01*
X126338114Y-82748552D01*
X126290495Y-82558076D01*
X126242876Y-82462838D01*
X126147638Y-82367600D01*
X126004780Y-82319980D01*
X125909542Y-82319980D01*
X125766685Y-82367600D01*
X125719066Y-82415219D01*
X125385733Y-82319980D02*
X124766685Y-82319980D01*
X125100019Y-82700933D01*
X124957161Y-82700933D01*
X124861923Y-82748552D01*
X124814304Y-82796171D01*
X124766685Y-82891409D01*
X124766685Y-83129504D01*
X124814304Y-83224742D01*
X124861923Y-83272361D01*
X124957161Y-83319980D01*
X125242876Y-83319980D01*
X125338114Y-83272361D01*
X125385733Y-83224742D01*
X117992342Y-96170533D02*
X118039961Y-96122914D01*
X118087580Y-95980057D01*
X118087580Y-95884819D01*
X118039961Y-95741961D01*
X117944723Y-95646723D01*
X117849485Y-95599104D01*
X117659009Y-95551485D01*
X117516152Y-95551485D01*
X117325676Y-95599104D01*
X117230438Y-95646723D01*
X117135200Y-95741961D01*
X117087580Y-95884819D01*
X117087580Y-95980057D01*
X117135200Y-96122914D01*
X117182819Y-96170533D01*
X117420914Y-97027676D02*
X118087580Y-97027676D01*
X117039961Y-96789580D02*
X117754247Y-96551485D01*
X117754247Y-97170533D01*
X126836666Y-98573942D02*
X126884285Y-98621561D01*
X127027142Y-98669180D01*
X127122380Y-98669180D01*
X127265238Y-98621561D01*
X127360476Y-98526323D01*
X127408095Y-98431085D01*
X127455714Y-98240609D01*
X127455714Y-98097752D01*
X127408095Y-97907276D01*
X127360476Y-97812038D01*
X127265238Y-97716800D01*
X127122380Y-97669180D01*
X127027142Y-97669180D01*
X126884285Y-97716800D01*
X126836666Y-97764419D01*
X125979523Y-97669180D02*
X126170000Y-97669180D01*
X126265238Y-97716800D01*
X126312857Y-97764419D01*
X126408095Y-97907276D01*
X126455714Y-98097752D01*
X126455714Y-98478704D01*
X126408095Y-98573942D01*
X126360476Y-98621561D01*
X126265238Y-98669180D01*
X126074761Y-98669180D01*
X125979523Y-98621561D01*
X125931904Y-98573942D01*
X125884285Y-98478704D01*
X125884285Y-98240609D01*
X125931904Y-98145371D01*
X125979523Y-98097752D01*
X126074761Y-98050133D01*
X126265238Y-98050133D01*
X126360476Y-98097752D01*
X126408095Y-98145371D01*
X126455714Y-98240609D01*
X117723142Y-109149933D02*
X117770761Y-109102314D01*
X117818380Y-108959457D01*
X117818380Y-108864219D01*
X117770761Y-108721361D01*
X117675523Y-108626123D01*
X117580285Y-108578504D01*
X117389809Y-108530885D01*
X117246952Y-108530885D01*
X117056476Y-108578504D01*
X116961238Y-108626123D01*
X116866000Y-108721361D01*
X116818380Y-108864219D01*
X116818380Y-108959457D01*
X116866000Y-109102314D01*
X116913619Y-109149933D01*
X117246952Y-109721361D02*
X117199333Y-109626123D01*
X117151714Y-109578504D01*
X117056476Y-109530885D01*
X117008857Y-109530885D01*
X116913619Y-109578504D01*
X116866000Y-109626123D01*
X116818380Y-109721361D01*
X116818380Y-109911838D01*
X116866000Y-110007076D01*
X116913619Y-110054695D01*
X117008857Y-110102314D01*
X117056476Y-110102314D01*
X117151714Y-110054695D01*
X117199333Y-110007076D01*
X117246952Y-109911838D01*
X117246952Y-109721361D01*
X117294571Y-109626123D01*
X117342190Y-109578504D01*
X117437428Y-109530885D01*
X117627904Y-109530885D01*
X117723142Y-109578504D01*
X117770761Y-109626123D01*
X117818380Y-109721361D01*
X117818380Y-109911838D01*
X117770761Y-110007076D01*
X117723142Y-110054695D01*
X117627904Y-110102314D01*
X117437428Y-110102314D01*
X117342190Y-110054695D01*
X117294571Y-110007076D01*
X117246952Y-109911838D01*
X126754057Y-110003942D02*
X126801676Y-110051561D01*
X126944533Y-110099180D01*
X127039771Y-110099180D01*
X127182628Y-110051561D01*
X127277866Y-109956323D01*
X127325485Y-109861085D01*
X127373104Y-109670609D01*
X127373104Y-109527752D01*
X127325485Y-109337276D01*
X127277866Y-109242038D01*
X127182628Y-109146800D01*
X127039771Y-109099180D01*
X126944533Y-109099180D01*
X126801676Y-109146800D01*
X126754057Y-109194419D01*
X126373104Y-109194419D02*
X126325485Y-109146800D01*
X126230247Y-109099180D01*
X125992152Y-109099180D01*
X125896914Y-109146800D01*
X125849295Y-109194419D01*
X125801676Y-109289657D01*
X125801676Y-109384895D01*
X125849295Y-109527752D01*
X126420723Y-110099180D01*
X125801676Y-110099180D01*
X124849295Y-110099180D02*
X125420723Y-110099180D01*
X125135009Y-110099180D02*
X125135009Y-109099180D01*
X125230247Y-109242038D01*
X125325485Y-109337276D01*
X125420723Y-109384895D01*
X115882857Y-104814742D02*
X115930476Y-104862361D01*
X116073333Y-104909980D01*
X116168571Y-104909980D01*
X116311428Y-104862361D01*
X116406666Y-104767123D01*
X116454285Y-104671885D01*
X116501904Y-104481409D01*
X116501904Y-104338552D01*
X116454285Y-104148076D01*
X116406666Y-104052838D01*
X116311428Y-103957600D01*
X116168571Y-103909980D01*
X116073333Y-103909980D01*
X115930476Y-103957600D01*
X115882857Y-104005219D01*
X115501904Y-104005219D02*
X115454285Y-103957600D01*
X115359047Y-103909980D01*
X115120952Y-103909980D01*
X115025714Y-103957600D01*
X114978095Y-104005219D01*
X114930476Y-104100457D01*
X114930476Y-104195695D01*
X114978095Y-104338552D01*
X115549523Y-104909980D01*
X114930476Y-104909980D01*
X114549523Y-104005219D02*
X114501904Y-103957600D01*
X114406666Y-103909980D01*
X114168571Y-103909980D01*
X114073333Y-103957600D01*
X114025714Y-104005219D01*
X113978095Y-104100457D01*
X113978095Y-104195695D01*
X114025714Y-104338552D01*
X114597142Y-104909980D01*
X113978095Y-104909980D01*
X157785266Y-54827542D02*
X157832885Y-54875161D01*
X157975742Y-54922780D01*
X158070980Y-54922780D01*
X158213838Y-54875161D01*
X158309076Y-54779923D01*
X158356695Y-54684685D01*
X158404314Y-54494209D01*
X158404314Y-54351352D01*
X158356695Y-54160876D01*
X158309076Y-54065638D01*
X158213838Y-53970400D01*
X158070980Y-53922780D01*
X157975742Y-53922780D01*
X157832885Y-53970400D01*
X157785266Y-54018019D01*
X157451933Y-53922780D02*
X156785266Y-53922780D01*
X157213838Y-54922780D01*
X158148457Y-63674342D02*
X158196076Y-63721961D01*
X158338933Y-63769580D01*
X158434171Y-63769580D01*
X158577028Y-63721961D01*
X158672266Y-63626723D01*
X158719885Y-63531485D01*
X158767504Y-63341009D01*
X158767504Y-63198152D01*
X158719885Y-63007676D01*
X158672266Y-62912438D01*
X158577028Y-62817200D01*
X158434171Y-62769580D01*
X158338933Y-62769580D01*
X158196076Y-62817200D01*
X158148457Y-62864819D01*
X157196076Y-63769580D02*
X157767504Y-63769580D01*
X157481790Y-63769580D02*
X157481790Y-62769580D01*
X157577028Y-62912438D01*
X157672266Y-63007676D01*
X157767504Y-63055295D01*
X156862742Y-62769580D02*
X156196076Y-62769580D01*
X156624647Y-63769580D01*
X149461657Y-55157742D02*
X149509276Y-55205361D01*
X149652133Y-55252980D01*
X149747371Y-55252980D01*
X149890228Y-55205361D01*
X149985466Y-55110123D01*
X150033085Y-55014885D01*
X150080704Y-54824409D01*
X150080704Y-54681552D01*
X150033085Y-54491076D01*
X149985466Y-54395838D01*
X149890228Y-54300600D01*
X149747371Y-54252980D01*
X149652133Y-54252980D01*
X149509276Y-54300600D01*
X149461657Y-54348219D01*
X148509276Y-55252980D02*
X149080704Y-55252980D01*
X148794990Y-55252980D02*
X148794990Y-54252980D01*
X148890228Y-54395838D01*
X148985466Y-54491076D01*
X149080704Y-54538695D01*
X148033085Y-55252980D02*
X147842609Y-55252980D01*
X147747371Y-55205361D01*
X147699752Y-55157742D01*
X147604514Y-55014885D01*
X147556895Y-54824409D01*
X147556895Y-54443457D01*
X147604514Y-54348219D01*
X147652133Y-54300600D01*
X147747371Y-54252980D01*
X147937847Y-54252980D01*
X148033085Y-54300600D01*
X148080704Y-54348219D01*
X148128323Y-54443457D01*
X148128323Y-54681552D01*
X148080704Y-54776790D01*
X148033085Y-54824409D01*
X147937847Y-54872028D01*
X147747371Y-54872028D01*
X147652133Y-54824409D01*
X147604514Y-54776790D01*
X147556895Y-54681552D01*
X149361342Y-70751542D02*
X149408961Y-70703923D01*
X149456580Y-70561066D01*
X149456580Y-70465828D01*
X149408961Y-70322971D01*
X149313723Y-70227733D01*
X149218485Y-70180114D01*
X149028009Y-70132495D01*
X148885152Y-70132495D01*
X148694676Y-70180114D01*
X148599438Y-70227733D01*
X148504200Y-70322971D01*
X148456580Y-70465828D01*
X148456580Y-70561066D01*
X148504200Y-70703923D01*
X148551819Y-70751542D01*
X148551819Y-71132495D02*
X148504200Y-71180114D01*
X148456580Y-71275352D01*
X148456580Y-71513447D01*
X148504200Y-71608685D01*
X148551819Y-71656304D01*
X148647057Y-71703923D01*
X148742295Y-71703923D01*
X148885152Y-71656304D01*
X149456580Y-71084876D01*
X149456580Y-71703923D01*
X148456580Y-72037257D02*
X148456580Y-72656304D01*
X148837533Y-72322971D01*
X148837533Y-72465828D01*
X148885152Y-72561066D01*
X148932771Y-72608685D01*
X149028009Y-72656304D01*
X149266104Y-72656304D01*
X149361342Y-72608685D01*
X149408961Y-72561066D01*
X149456580Y-72465828D01*
X149456580Y-72180114D01*
X149408961Y-72084876D01*
X149361342Y-72037257D01*
X117571980Y-47034304D02*
X116571980Y-47034304D01*
X116571980Y-47272400D01*
X116619600Y-47415257D01*
X116714838Y-47510495D01*
X116810076Y-47558114D01*
X117000552Y-47605733D01*
X117143409Y-47605733D01*
X117333885Y-47558114D01*
X117429123Y-47510495D01*
X117524361Y-47415257D01*
X117571980Y-47272400D01*
X117571980Y-47034304D01*
X116667219Y-47986685D02*
X116619600Y-48034304D01*
X116571980Y-48129542D01*
X116571980Y-48367638D01*
X116619600Y-48462876D01*
X116667219Y-48510495D01*
X116762457Y-48558114D01*
X116857695Y-48558114D01*
X117000552Y-48510495D01*
X117571980Y-47939066D01*
X117571980Y-48558114D01*
X146257380Y-43046504D02*
X145257380Y-43046504D01*
X145257380Y-43284600D01*
X145305000Y-43427457D01*
X145400238Y-43522695D01*
X145495476Y-43570314D01*
X145685952Y-43617933D01*
X145828809Y-43617933D01*
X146019285Y-43570314D01*
X146114523Y-43522695D01*
X146209761Y-43427457D01*
X146257380Y-43284600D01*
X146257380Y-43046504D01*
X145590714Y-44475076D02*
X146257380Y-44475076D01*
X145209761Y-44236980D02*
X145924047Y-43998885D01*
X145924047Y-44617933D01*
X151404780Y-68217904D02*
X150404780Y-68217904D01*
X150404780Y-68456000D01*
X150452400Y-68598857D01*
X150547638Y-68694095D01*
X150642876Y-68741714D01*
X150833352Y-68789333D01*
X150976209Y-68789333D01*
X151166685Y-68741714D01*
X151261923Y-68694095D01*
X151357161Y-68598857D01*
X151404780Y-68456000D01*
X151404780Y-68217904D01*
X150404780Y-69694095D02*
X150404780Y-69217904D01*
X150880971Y-69170285D01*
X150833352Y-69217904D01*
X150785733Y-69313142D01*
X150785733Y-69551238D01*
X150833352Y-69646476D01*
X150880971Y-69694095D01*
X150976209Y-69741714D01*
X151214304Y-69741714D01*
X151309542Y-69694095D01*
X151357161Y-69646476D01*
X151404780Y-69551238D01*
X151404780Y-69313142D01*
X151357161Y-69217904D01*
X151309542Y-69170285D01*
X149753780Y-68217904D02*
X148753780Y-68217904D01*
X148753780Y-68456000D01*
X148801400Y-68598857D01*
X148896638Y-68694095D01*
X148991876Y-68741714D01*
X149182352Y-68789333D01*
X149325209Y-68789333D01*
X149515685Y-68741714D01*
X149610923Y-68694095D01*
X149706161Y-68598857D01*
X149753780Y-68456000D01*
X149753780Y-68217904D01*
X148753780Y-69646476D02*
X148753780Y-69456000D01*
X148801400Y-69360761D01*
X148849019Y-69313142D01*
X148991876Y-69217904D01*
X149182352Y-69170285D01*
X149563304Y-69170285D01*
X149658542Y-69217904D01*
X149706161Y-69265523D01*
X149753780Y-69360761D01*
X149753780Y-69551238D01*
X149706161Y-69646476D01*
X149658542Y-69694095D01*
X149563304Y-69741714D01*
X149325209Y-69741714D01*
X149229971Y-69694095D01*
X149182352Y-69646476D01*
X149134733Y-69551238D01*
X149134733Y-69360761D01*
X149182352Y-69265523D01*
X149229971Y-69217904D01*
X149325209Y-69170285D01*
X117283380Y-128867314D02*
X116283380Y-128867314D01*
X116283380Y-129105409D01*
X116331000Y-129248266D01*
X116426238Y-129343504D01*
X116521476Y-129391123D01*
X116711952Y-129438742D01*
X116854809Y-129438742D01*
X117045285Y-129391123D01*
X117140523Y-129343504D01*
X117235761Y-129248266D01*
X117283380Y-129105409D01*
X117283380Y-128867314D01*
X117283380Y-130391123D02*
X117283380Y-129819695D01*
X117283380Y-130105409D02*
X116283380Y-130105409D01*
X116426238Y-130010171D01*
X116521476Y-129914933D01*
X116569095Y-129819695D01*
X117283380Y-131343504D02*
X117283380Y-130772076D01*
X117283380Y-131057790D02*
X116283380Y-131057790D01*
X116426238Y-130962552D01*
X116521476Y-130867314D01*
X116569095Y-130772076D01*
X127283380Y-128867314D02*
X126283380Y-128867314D01*
X126283380Y-129105409D01*
X126331000Y-129248266D01*
X126426238Y-129343504D01*
X126521476Y-129391123D01*
X126711952Y-129438742D01*
X126854809Y-129438742D01*
X127045285Y-129391123D01*
X127140523Y-129343504D01*
X127235761Y-129248266D01*
X127283380Y-129105409D01*
X127283380Y-128867314D01*
X127283380Y-130391123D02*
X127283380Y-129819695D01*
X127283380Y-130105409D02*
X126283380Y-130105409D01*
X126426238Y-130010171D01*
X126521476Y-129914933D01*
X126569095Y-129819695D01*
X126378619Y-130772076D02*
X126331000Y-130819695D01*
X126283380Y-130914933D01*
X126283380Y-131153028D01*
X126331000Y-131248266D01*
X126378619Y-131295885D01*
X126473857Y-131343504D01*
X126569095Y-131343504D01*
X126711952Y-131295885D01*
X127283380Y-130724457D01*
X127283380Y-131343504D01*
X137283380Y-128867314D02*
X136283380Y-128867314D01*
X136283380Y-129105409D01*
X136331000Y-129248266D01*
X136426238Y-129343504D01*
X136521476Y-129391123D01*
X136711952Y-129438742D01*
X136854809Y-129438742D01*
X137045285Y-129391123D01*
X137140523Y-129343504D01*
X137235761Y-129248266D01*
X137283380Y-129105409D01*
X137283380Y-128867314D01*
X137283380Y-130391123D02*
X137283380Y-129819695D01*
X137283380Y-130105409D02*
X136283380Y-130105409D01*
X136426238Y-130010171D01*
X136521476Y-129914933D01*
X136569095Y-129819695D01*
X136283380Y-130724457D02*
X136283380Y-131343504D01*
X136664333Y-131010171D01*
X136664333Y-131153028D01*
X136711952Y-131248266D01*
X136759571Y-131295885D01*
X136854809Y-131343504D01*
X137092904Y-131343504D01*
X137188142Y-131295885D01*
X137235761Y-131248266D01*
X137283380Y-131153028D01*
X137283380Y-130867314D01*
X137235761Y-130772076D01*
X137188142Y-130724457D01*
X147283380Y-128867314D02*
X146283380Y-128867314D01*
X146283380Y-129105409D01*
X146331000Y-129248266D01*
X146426238Y-129343504D01*
X146521476Y-129391123D01*
X146711952Y-129438742D01*
X146854809Y-129438742D01*
X147045285Y-129391123D01*
X147140523Y-129343504D01*
X147235761Y-129248266D01*
X147283380Y-129105409D01*
X147283380Y-128867314D01*
X147283380Y-130391123D02*
X147283380Y-129819695D01*
X147283380Y-130105409D02*
X146283380Y-130105409D01*
X146426238Y-130010171D01*
X146521476Y-129914933D01*
X146569095Y-129819695D01*
X146616714Y-131248266D02*
X147283380Y-131248266D01*
X146235761Y-131010171D02*
X146950047Y-130772076D01*
X146950047Y-131391123D01*
X111033380Y-98577314D02*
X110033380Y-98577314D01*
X110033380Y-98815409D01*
X110081000Y-98958266D01*
X110176238Y-99053504D01*
X110271476Y-99101123D01*
X110461952Y-99148742D01*
X110604809Y-99148742D01*
X110795285Y-99101123D01*
X110890523Y-99053504D01*
X110985761Y-98958266D01*
X111033380Y-98815409D01*
X111033380Y-98577314D01*
X111033380Y-100101123D02*
X111033380Y-99529695D01*
X111033380Y-99815409D02*
X110033380Y-99815409D01*
X110176238Y-99720171D01*
X110271476Y-99624933D01*
X110319095Y-99529695D01*
X110033380Y-101005885D02*
X110033380Y-100529695D01*
X110509571Y-100482076D01*
X110461952Y-100529695D01*
X110414333Y-100624933D01*
X110414333Y-100863028D01*
X110461952Y-100958266D01*
X110509571Y-101005885D01*
X110604809Y-101053504D01*
X110842904Y-101053504D01*
X110938142Y-101005885D01*
X110985761Y-100958266D01*
X111033380Y-100863028D01*
X111033380Y-100624933D01*
X110985761Y-100529695D01*
X110938142Y-100482076D01*
X150422133Y-45465771D02*
X150755466Y-45465771D01*
X150755466Y-45989580D02*
X150755466Y-44989580D01*
X150279276Y-44989580D01*
X149945942Y-45084819D02*
X149898323Y-45037200D01*
X149803085Y-44989580D01*
X149564990Y-44989580D01*
X149469752Y-45037200D01*
X149422133Y-45084819D01*
X149374514Y-45180057D01*
X149374514Y-45275295D01*
X149422133Y-45418152D01*
X149993561Y-45989580D01*
X149374514Y-45989580D01*
X162944333Y-48972380D02*
X162944333Y-49686666D01*
X162991952Y-49829523D01*
X163087190Y-49924761D01*
X163230047Y-49972380D01*
X163325285Y-49972380D01*
X162563380Y-48972380D02*
X161944333Y-48972380D01*
X162277666Y-49353333D01*
X162134809Y-49353333D01*
X162039571Y-49400952D01*
X161991952Y-49448571D01*
X161944333Y-49543809D01*
X161944333Y-49781904D01*
X161991952Y-49877142D01*
X162039571Y-49924761D01*
X162134809Y-49972380D01*
X162420523Y-49972380D01*
X162515761Y-49924761D01*
X162563380Y-49877142D01*
X146227619Y-55195561D02*
X146180000Y-55100323D01*
X146084761Y-55005085D01*
X145941904Y-54862228D01*
X145894285Y-54766990D01*
X145894285Y-54671752D01*
X146132380Y-54719371D02*
X146084761Y-54624133D01*
X145989523Y-54528895D01*
X145799047Y-54481276D01*
X145465714Y-54481276D01*
X145275238Y-54528895D01*
X145180000Y-54624133D01*
X145132380Y-54719371D01*
X145132380Y-54909847D01*
X145180000Y-55005085D01*
X145275238Y-55100323D01*
X145465714Y-55147942D01*
X145799047Y-55147942D01*
X145989523Y-55100323D01*
X146084761Y-55005085D01*
X146132380Y-54909847D01*
X146132380Y-54719371D01*
X145227619Y-55528895D02*
X145180000Y-55576514D01*
X145132380Y-55671752D01*
X145132380Y-55909847D01*
X145180000Y-56005085D01*
X145227619Y-56052704D01*
X145322857Y-56100323D01*
X145418095Y-56100323D01*
X145560952Y-56052704D01*
X146132380Y-55481276D01*
X146132380Y-56100323D01*
X163900038Y-62529419D02*
X163995276Y-62481800D01*
X164090514Y-62386561D01*
X164233371Y-62243704D01*
X164328609Y-62196085D01*
X164423847Y-62196085D01*
X164376228Y-62434180D02*
X164471466Y-62386561D01*
X164566704Y-62291323D01*
X164614323Y-62100847D01*
X164614323Y-61767514D01*
X164566704Y-61577038D01*
X164471466Y-61481800D01*
X164376228Y-61434180D01*
X164185752Y-61434180D01*
X164090514Y-61481800D01*
X163995276Y-61577038D01*
X163947657Y-61767514D01*
X163947657Y-62100847D01*
X163995276Y-62291323D01*
X164090514Y-62386561D01*
X164185752Y-62434180D01*
X164376228Y-62434180D01*
X163614323Y-61434180D02*
X162995276Y-61434180D01*
X163328609Y-61815133D01*
X163185752Y-61815133D01*
X163090514Y-61862752D01*
X163042895Y-61910371D01*
X162995276Y-62005609D01*
X162995276Y-62243704D01*
X163042895Y-62338942D01*
X163090514Y-62386561D01*
X163185752Y-62434180D01*
X163471466Y-62434180D01*
X163566704Y-62386561D01*
X163614323Y-62338942D01*
X115711466Y-49748780D02*
X116044800Y-49272590D01*
X116282895Y-49748780D02*
X116282895Y-48748780D01*
X115901942Y-48748780D01*
X115806704Y-48796400D01*
X115759085Y-48844019D01*
X115711466Y-48939257D01*
X115711466Y-49082114D01*
X115759085Y-49177352D01*
X115806704Y-49224971D01*
X115901942Y-49272590D01*
X116282895Y-49272590D01*
X115378133Y-48748780D02*
X114711466Y-48748780D01*
X115140038Y-49748780D01*
X120264380Y-48399542D02*
X119788190Y-48066209D01*
X120264380Y-47828114D02*
X119264380Y-47828114D01*
X119264380Y-48209066D01*
X119312000Y-48304304D01*
X119359619Y-48351923D01*
X119454857Y-48399542D01*
X119597714Y-48399542D01*
X119692952Y-48351923D01*
X119740571Y-48304304D01*
X119788190Y-48209066D01*
X119788190Y-47828114D01*
X120264380Y-49351923D02*
X120264380Y-48780495D01*
X120264380Y-49066209D02*
X119264380Y-49066209D01*
X119407238Y-48970971D01*
X119502476Y-48875733D01*
X119550095Y-48780495D01*
X119359619Y-49732876D02*
X119312000Y-49780495D01*
X119264380Y-49875733D01*
X119264380Y-50113828D01*
X119312000Y-50209066D01*
X119359619Y-50256685D01*
X119454857Y-50304304D01*
X119550095Y-50304304D01*
X119692952Y-50256685D01*
X120264380Y-49685257D01*
X120264380Y-50304304D01*
X172797057Y-75112580D02*
X173130390Y-74636390D01*
X173368485Y-75112580D02*
X173368485Y-74112580D01*
X172987533Y-74112580D01*
X172892295Y-74160200D01*
X172844676Y-74207819D01*
X172797057Y-74303057D01*
X172797057Y-74445914D01*
X172844676Y-74541152D01*
X172892295Y-74588771D01*
X172987533Y-74636390D01*
X173368485Y-74636390D01*
X171844676Y-75112580D02*
X172416104Y-75112580D01*
X172130390Y-75112580D02*
X172130390Y-74112580D01*
X172225628Y-74255438D01*
X172320866Y-74350676D01*
X172416104Y-74398295D01*
X171511342Y-74112580D02*
X170892295Y-74112580D01*
X171225628Y-74493533D01*
X171082771Y-74493533D01*
X170987533Y-74541152D01*
X170939914Y-74588771D01*
X170892295Y-74684009D01*
X170892295Y-74922104D01*
X170939914Y-75017342D01*
X170987533Y-75064961D01*
X171082771Y-75112580D01*
X171368485Y-75112580D01*
X171463723Y-75064961D01*
X171511342Y-75017342D01*
X172898657Y-73087180D02*
X173231990Y-72610990D01*
X173470085Y-73087180D02*
X173470085Y-72087180D01*
X173089133Y-72087180D01*
X172993895Y-72134800D01*
X172946276Y-72182419D01*
X172898657Y-72277657D01*
X172898657Y-72420514D01*
X172946276Y-72515752D01*
X172993895Y-72563371D01*
X173089133Y-72610990D01*
X173470085Y-72610990D01*
X171946276Y-73087180D02*
X172517704Y-73087180D01*
X172231990Y-73087180D02*
X172231990Y-72087180D01*
X172327228Y-72230038D01*
X172422466Y-72325276D01*
X172517704Y-72372895D01*
X171089133Y-72420514D02*
X171089133Y-73087180D01*
X171327228Y-72039561D02*
X171565323Y-72753847D01*
X170946276Y-72753847D01*
X158377057Y-73073580D02*
X158710390Y-72597390D01*
X158948485Y-73073580D02*
X158948485Y-72073580D01*
X158567533Y-72073580D01*
X158472295Y-72121200D01*
X158424676Y-72168819D01*
X158377057Y-72264057D01*
X158377057Y-72406914D01*
X158424676Y-72502152D01*
X158472295Y-72549771D01*
X158567533Y-72597390D01*
X158948485Y-72597390D01*
X157424676Y-73073580D02*
X157996104Y-73073580D01*
X157710390Y-73073580D02*
X157710390Y-72073580D01*
X157805628Y-72216438D01*
X157900866Y-72311676D01*
X157996104Y-72359295D01*
X156519914Y-72073580D02*
X156996104Y-72073580D01*
X157043723Y-72549771D01*
X156996104Y-72502152D01*
X156900866Y-72454533D01*
X156662771Y-72454533D01*
X156567533Y-72502152D01*
X156519914Y-72549771D01*
X156472295Y-72645009D01*
X156472295Y-72883104D01*
X156519914Y-72978342D01*
X156567533Y-73025961D01*
X156662771Y-73073580D01*
X156900866Y-73073580D01*
X156996104Y-73025961D01*
X157043723Y-72978342D01*
X158300857Y-70101780D02*
X158634190Y-69625590D01*
X158872285Y-70101780D02*
X158872285Y-69101780D01*
X158491333Y-69101780D01*
X158396095Y-69149400D01*
X158348476Y-69197019D01*
X158300857Y-69292257D01*
X158300857Y-69435114D01*
X158348476Y-69530352D01*
X158396095Y-69577971D01*
X158491333Y-69625590D01*
X158872285Y-69625590D01*
X157348476Y-70101780D02*
X157919904Y-70101780D01*
X157634190Y-70101780D02*
X157634190Y-69101780D01*
X157729428Y-69244638D01*
X157824666Y-69339876D01*
X157919904Y-69387495D01*
X156491333Y-69101780D02*
X156681809Y-69101780D01*
X156777047Y-69149400D01*
X156824666Y-69197019D01*
X156919904Y-69339876D01*
X156967523Y-69530352D01*
X156967523Y-69911304D01*
X156919904Y-70006542D01*
X156872285Y-70054161D01*
X156777047Y-70101780D01*
X156586571Y-70101780D01*
X156491333Y-70054161D01*
X156443714Y-70006542D01*
X156396095Y-69911304D01*
X156396095Y-69673209D01*
X156443714Y-69577971D01*
X156491333Y-69530352D01*
X156586571Y-69482733D01*
X156777047Y-69482733D01*
X156872285Y-69530352D01*
X156919904Y-69577971D01*
X156967523Y-69673209D01*
X114897380Y-108673742D02*
X114421190Y-108340409D01*
X114897380Y-108102314D02*
X113897380Y-108102314D01*
X113897380Y-108483266D01*
X113945000Y-108578504D01*
X113992619Y-108626123D01*
X114087857Y-108673742D01*
X114230714Y-108673742D01*
X114325952Y-108626123D01*
X114373571Y-108578504D01*
X114421190Y-108483266D01*
X114421190Y-108102314D01*
X114897380Y-109626123D02*
X114897380Y-109054695D01*
X114897380Y-109340409D02*
X113897380Y-109340409D01*
X114040238Y-109245171D01*
X114135476Y-109149933D01*
X114183095Y-109054695D01*
X114325952Y-110197552D02*
X114278333Y-110102314D01*
X114230714Y-110054695D01*
X114135476Y-110007076D01*
X114087857Y-110007076D01*
X113992619Y-110054695D01*
X113945000Y-110102314D01*
X113897380Y-110197552D01*
X113897380Y-110388028D01*
X113945000Y-110483266D01*
X113992619Y-110530885D01*
X114087857Y-110578504D01*
X114135476Y-110578504D01*
X114230714Y-110530885D01*
X114278333Y-110483266D01*
X114325952Y-110388028D01*
X114325952Y-110197552D01*
X114373571Y-110102314D01*
X114421190Y-110054695D01*
X114516428Y-110007076D01*
X114706904Y-110007076D01*
X114802142Y-110054695D01*
X114849761Y-110102314D01*
X114897380Y-110197552D01*
X114897380Y-110388028D01*
X114849761Y-110483266D01*
X114802142Y-110530885D01*
X114706904Y-110578504D01*
X114516428Y-110578504D01*
X114421190Y-110530885D01*
X114373571Y-110483266D01*
X114325952Y-110388028D01*
X121973857Y-121103980D02*
X122307190Y-120627790D01*
X122545285Y-121103980D02*
X122545285Y-120103980D01*
X122164333Y-120103980D01*
X122069095Y-120151600D01*
X122021476Y-120199219D01*
X121973857Y-120294457D01*
X121973857Y-120437314D01*
X122021476Y-120532552D01*
X122069095Y-120580171D01*
X122164333Y-120627790D01*
X122545285Y-120627790D01*
X121021476Y-121103980D02*
X121592904Y-121103980D01*
X121307190Y-121103980D02*
X121307190Y-120103980D01*
X121402428Y-120246838D01*
X121497666Y-120342076D01*
X121592904Y-120389695D01*
X120545285Y-121103980D02*
X120354809Y-121103980D01*
X120259571Y-121056361D01*
X120211952Y-121008742D01*
X120116714Y-120865885D01*
X120069095Y-120675409D01*
X120069095Y-120294457D01*
X120116714Y-120199219D01*
X120164333Y-120151600D01*
X120259571Y-120103980D01*
X120450047Y-120103980D01*
X120545285Y-120151600D01*
X120592904Y-120199219D01*
X120640523Y-120294457D01*
X120640523Y-120532552D01*
X120592904Y-120627790D01*
X120545285Y-120675409D01*
X120450047Y-120723028D01*
X120259571Y-120723028D01*
X120164333Y-120675409D01*
X120116714Y-120627790D01*
X120069095Y-120532552D01*
X131973857Y-121103980D02*
X132307190Y-120627790D01*
X132545285Y-121103980D02*
X132545285Y-120103980D01*
X132164333Y-120103980D01*
X132069095Y-120151600D01*
X132021476Y-120199219D01*
X131973857Y-120294457D01*
X131973857Y-120437314D01*
X132021476Y-120532552D01*
X132069095Y-120580171D01*
X132164333Y-120627790D01*
X132545285Y-120627790D01*
X131592904Y-120199219D02*
X131545285Y-120151600D01*
X131450047Y-120103980D01*
X131211952Y-120103980D01*
X131116714Y-120151600D01*
X131069095Y-120199219D01*
X131021476Y-120294457D01*
X131021476Y-120389695D01*
X131069095Y-120532552D01*
X131640523Y-121103980D01*
X131021476Y-121103980D01*
X130402428Y-120103980D02*
X130307190Y-120103980D01*
X130211952Y-120151600D01*
X130164333Y-120199219D01*
X130116714Y-120294457D01*
X130069095Y-120484933D01*
X130069095Y-120723028D01*
X130116714Y-120913504D01*
X130164333Y-121008742D01*
X130211952Y-121056361D01*
X130307190Y-121103980D01*
X130402428Y-121103980D01*
X130497666Y-121056361D01*
X130545285Y-121008742D01*
X130592904Y-120913504D01*
X130640523Y-120723028D01*
X130640523Y-120484933D01*
X130592904Y-120294457D01*
X130545285Y-120199219D01*
X130497666Y-120151600D01*
X130402428Y-120103980D01*
X141973857Y-121103980D02*
X142307190Y-120627790D01*
X142545285Y-121103980D02*
X142545285Y-120103980D01*
X142164333Y-120103980D01*
X142069095Y-120151600D01*
X142021476Y-120199219D01*
X141973857Y-120294457D01*
X141973857Y-120437314D01*
X142021476Y-120532552D01*
X142069095Y-120580171D01*
X142164333Y-120627790D01*
X142545285Y-120627790D01*
X141592904Y-120199219D02*
X141545285Y-120151600D01*
X141450047Y-120103980D01*
X141211952Y-120103980D01*
X141116714Y-120151600D01*
X141069095Y-120199219D01*
X141021476Y-120294457D01*
X141021476Y-120389695D01*
X141069095Y-120532552D01*
X141640523Y-121103980D01*
X141021476Y-121103980D01*
X140069095Y-121103980D02*
X140640523Y-121103980D01*
X140354809Y-121103980D02*
X140354809Y-120103980D01*
X140450047Y-120246838D01*
X140545285Y-120342076D01*
X140640523Y-120389695D01*
X151973857Y-121103980D02*
X152307190Y-120627790D01*
X152545285Y-121103980D02*
X152545285Y-120103980D01*
X152164333Y-120103980D01*
X152069095Y-120151600D01*
X152021476Y-120199219D01*
X151973857Y-120294457D01*
X151973857Y-120437314D01*
X152021476Y-120532552D01*
X152069095Y-120580171D01*
X152164333Y-120627790D01*
X152545285Y-120627790D01*
X151592904Y-120199219D02*
X151545285Y-120151600D01*
X151450047Y-120103980D01*
X151211952Y-120103980D01*
X151116714Y-120151600D01*
X151069095Y-120199219D01*
X151021476Y-120294457D01*
X151021476Y-120389695D01*
X151069095Y-120532552D01*
X151640523Y-121103980D01*
X151021476Y-121103980D01*
X150640523Y-120199219D02*
X150592904Y-120151600D01*
X150497666Y-120103980D01*
X150259571Y-120103980D01*
X150164333Y-120151600D01*
X150116714Y-120199219D01*
X150069095Y-120294457D01*
X150069095Y-120389695D01*
X150116714Y-120532552D01*
X150688142Y-121103980D01*
X150069095Y-121103980D01*
X112103380Y-108673742D02*
X111627190Y-108340409D01*
X112103380Y-108102314D02*
X111103380Y-108102314D01*
X111103380Y-108483266D01*
X111151000Y-108578504D01*
X111198619Y-108626123D01*
X111293857Y-108673742D01*
X111436714Y-108673742D01*
X111531952Y-108626123D01*
X111579571Y-108578504D01*
X111627190Y-108483266D01*
X111627190Y-108102314D01*
X111198619Y-109054695D02*
X111151000Y-109102314D01*
X111103380Y-109197552D01*
X111103380Y-109435647D01*
X111151000Y-109530885D01*
X111198619Y-109578504D01*
X111293857Y-109626123D01*
X111389095Y-109626123D01*
X111531952Y-109578504D01*
X112103380Y-109007076D01*
X112103380Y-109626123D01*
X111103380Y-109959457D02*
X111103380Y-110578504D01*
X111484333Y-110245171D01*
X111484333Y-110388028D01*
X111531952Y-110483266D01*
X111579571Y-110530885D01*
X111674809Y-110578504D01*
X111912904Y-110578504D01*
X112008142Y-110530885D01*
X112055761Y-110483266D01*
X112103380Y-110388028D01*
X112103380Y-110102314D01*
X112055761Y-110007076D01*
X112008142Y-109959457D01*
X123604457Y-106332380D02*
X123937790Y-105856190D01*
X124175885Y-106332380D02*
X124175885Y-105332380D01*
X123794933Y-105332380D01*
X123699695Y-105380000D01*
X123652076Y-105427619D01*
X123604457Y-105522857D01*
X123604457Y-105665714D01*
X123652076Y-105760952D01*
X123699695Y-105808571D01*
X123794933Y-105856190D01*
X124175885Y-105856190D01*
X123223504Y-105427619D02*
X123175885Y-105380000D01*
X123080647Y-105332380D01*
X122842552Y-105332380D01*
X122747314Y-105380000D01*
X122699695Y-105427619D01*
X122652076Y-105522857D01*
X122652076Y-105618095D01*
X122699695Y-105760952D01*
X123271123Y-106332380D01*
X122652076Y-106332380D01*
X121794933Y-105665714D02*
X121794933Y-106332380D01*
X122033028Y-105284761D02*
X122271123Y-105999047D01*
X121652076Y-105999047D01*
X165920857Y-52702780D02*
X166254190Y-52226590D01*
X166492285Y-52702780D02*
X166492285Y-51702780D01*
X166111333Y-51702780D01*
X166016095Y-51750400D01*
X165968476Y-51798019D01*
X165920857Y-51893257D01*
X165920857Y-52036114D01*
X165968476Y-52131352D01*
X166016095Y-52178971D01*
X166111333Y-52226590D01*
X166492285Y-52226590D01*
X164968476Y-52702780D02*
X165539904Y-52702780D01*
X165254190Y-52702780D02*
X165254190Y-51702780D01*
X165349428Y-51845638D01*
X165444666Y-51940876D01*
X165539904Y-51988495D01*
X164016095Y-52702780D02*
X164587523Y-52702780D01*
X164301809Y-52702780D02*
X164301809Y-51702780D01*
X164397047Y-51845638D01*
X164492285Y-51940876D01*
X164587523Y-51988495D01*
X160383657Y-52745980D02*
X160716990Y-52269790D01*
X160955085Y-52745980D02*
X160955085Y-51745980D01*
X160574133Y-51745980D01*
X160478895Y-51793600D01*
X160431276Y-51841219D01*
X160383657Y-51936457D01*
X160383657Y-52079314D01*
X160431276Y-52174552D01*
X160478895Y-52222171D01*
X160574133Y-52269790D01*
X160955085Y-52269790D01*
X160002704Y-51841219D02*
X159955085Y-51793600D01*
X159859847Y-51745980D01*
X159621752Y-51745980D01*
X159526514Y-51793600D01*
X159478895Y-51841219D01*
X159431276Y-51936457D01*
X159431276Y-52031695D01*
X159478895Y-52174552D01*
X160050323Y-52745980D01*
X159431276Y-52745980D01*
X158526514Y-51745980D02*
X159002704Y-51745980D01*
X159050323Y-52222171D01*
X159002704Y-52174552D01*
X158907466Y-52126933D01*
X158669371Y-52126933D01*
X158574133Y-52174552D01*
X158526514Y-52222171D01*
X158478895Y-52317409D01*
X158478895Y-52555504D01*
X158526514Y-52650742D01*
X158574133Y-52698361D01*
X158669371Y-52745980D01*
X158907466Y-52745980D01*
X159002704Y-52698361D01*
X159050323Y-52650742D01*
X140723857Y-58923180D02*
X141057190Y-58446990D01*
X141295285Y-58923180D02*
X141295285Y-57923180D01*
X140914333Y-57923180D01*
X140819095Y-57970800D01*
X140771476Y-58018419D01*
X140723857Y-58113657D01*
X140723857Y-58256514D01*
X140771476Y-58351752D01*
X140819095Y-58399371D01*
X140914333Y-58446990D01*
X141295285Y-58446990D01*
X140342904Y-58018419D02*
X140295285Y-57970800D01*
X140200047Y-57923180D01*
X139961952Y-57923180D01*
X139866714Y-57970800D01*
X139819095Y-58018419D01*
X139771476Y-58113657D01*
X139771476Y-58208895D01*
X139819095Y-58351752D01*
X140390523Y-58923180D01*
X139771476Y-58923180D01*
X139438142Y-57923180D02*
X138771476Y-57923180D01*
X139200047Y-58923180D01*
X144495980Y-66484342D02*
X144019790Y-66151009D01*
X144495980Y-65912914D02*
X143495980Y-65912914D01*
X143495980Y-66293866D01*
X143543600Y-66389104D01*
X143591219Y-66436723D01*
X143686457Y-66484342D01*
X143829314Y-66484342D01*
X143924552Y-66436723D01*
X143972171Y-66389104D01*
X144019790Y-66293866D01*
X144019790Y-65912914D01*
X143591219Y-66865295D02*
X143543600Y-66912914D01*
X143495980Y-67008152D01*
X143495980Y-67246247D01*
X143543600Y-67341485D01*
X143591219Y-67389104D01*
X143686457Y-67436723D01*
X143781695Y-67436723D01*
X143924552Y-67389104D01*
X144495980Y-66817676D01*
X144495980Y-67436723D01*
X143924552Y-68008152D02*
X143876933Y-67912914D01*
X143829314Y-67865295D01*
X143734076Y-67817676D01*
X143686457Y-67817676D01*
X143591219Y-67865295D01*
X143543600Y-67912914D01*
X143495980Y-68008152D01*
X143495980Y-68198628D01*
X143543600Y-68293866D01*
X143591219Y-68341485D01*
X143686457Y-68389104D01*
X143734076Y-68389104D01*
X143829314Y-68341485D01*
X143876933Y-68293866D01*
X143924552Y-68198628D01*
X143924552Y-68008152D01*
X143972171Y-67912914D01*
X144019790Y-67865295D01*
X144115028Y-67817676D01*
X144305504Y-67817676D01*
X144400742Y-67865295D01*
X144448361Y-67912914D01*
X144495980Y-68008152D01*
X144495980Y-68198628D01*
X144448361Y-68293866D01*
X144400742Y-68341485D01*
X144305504Y-68389104D01*
X144115028Y-68389104D01*
X144019790Y-68341485D01*
X143972171Y-68293866D01*
X143924552Y-68198628D01*
X166322180Y-62902942D02*
X165845990Y-62569609D01*
X166322180Y-62331514D02*
X165322180Y-62331514D01*
X165322180Y-62712466D01*
X165369800Y-62807704D01*
X165417419Y-62855323D01*
X165512657Y-62902942D01*
X165655514Y-62902942D01*
X165750752Y-62855323D01*
X165798371Y-62807704D01*
X165845990Y-62712466D01*
X165845990Y-62331514D01*
X165417419Y-63283895D02*
X165369800Y-63331514D01*
X165322180Y-63426752D01*
X165322180Y-63664847D01*
X165369800Y-63760085D01*
X165417419Y-63807704D01*
X165512657Y-63855323D01*
X165607895Y-63855323D01*
X165750752Y-63807704D01*
X166322180Y-63236276D01*
X166322180Y-63855323D01*
X166322180Y-64331514D02*
X166322180Y-64521990D01*
X166274561Y-64617228D01*
X166226942Y-64664847D01*
X166084085Y-64760085D01*
X165893609Y-64807704D01*
X165512657Y-64807704D01*
X165417419Y-64760085D01*
X165369800Y-64712466D01*
X165322180Y-64617228D01*
X165322180Y-64426752D01*
X165369800Y-64331514D01*
X165417419Y-64283895D01*
X165512657Y-64236276D01*
X165750752Y-64236276D01*
X165845990Y-64283895D01*
X165893609Y-64331514D01*
X165941228Y-64426752D01*
X165941228Y-64617228D01*
X165893609Y-64712466D01*
X165845990Y-64760085D01*
X165750752Y-64807704D01*
X161531780Y-62953742D02*
X161055590Y-62620409D01*
X161531780Y-62382314D02*
X160531780Y-62382314D01*
X160531780Y-62763266D01*
X160579400Y-62858504D01*
X160627019Y-62906123D01*
X160722257Y-62953742D01*
X160865114Y-62953742D01*
X160960352Y-62906123D01*
X161007971Y-62858504D01*
X161055590Y-62763266D01*
X161055590Y-62382314D01*
X160531780Y-63287076D02*
X160531780Y-63906123D01*
X160912733Y-63572790D01*
X160912733Y-63715647D01*
X160960352Y-63810885D01*
X161007971Y-63858504D01*
X161103209Y-63906123D01*
X161341304Y-63906123D01*
X161436542Y-63858504D01*
X161484161Y-63810885D01*
X161531780Y-63715647D01*
X161531780Y-63429933D01*
X161484161Y-63334695D01*
X161436542Y-63287076D01*
X160531780Y-64525171D02*
X160531780Y-64620409D01*
X160579400Y-64715647D01*
X160627019Y-64763266D01*
X160722257Y-64810885D01*
X160912733Y-64858504D01*
X161150828Y-64858504D01*
X161341304Y-64810885D01*
X161436542Y-64763266D01*
X161484161Y-64715647D01*
X161531780Y-64620409D01*
X161531780Y-64525171D01*
X161484161Y-64429933D01*
X161436542Y-64382314D01*
X161341304Y-64334695D01*
X161150828Y-64287076D01*
X160912733Y-64287076D01*
X160722257Y-64334695D01*
X160627019Y-64382314D01*
X160579400Y-64429933D01*
X160531780Y-64525171D01*
X155214780Y-61353542D02*
X154738590Y-61020209D01*
X155214780Y-60782114D02*
X154214780Y-60782114D01*
X154214780Y-61163066D01*
X154262400Y-61258304D01*
X154310019Y-61305923D01*
X154405257Y-61353542D01*
X154548114Y-61353542D01*
X154643352Y-61305923D01*
X154690971Y-61258304D01*
X154738590Y-61163066D01*
X154738590Y-60782114D01*
X154310019Y-61734495D02*
X154262400Y-61782114D01*
X154214780Y-61877352D01*
X154214780Y-62115447D01*
X154262400Y-62210685D01*
X154310019Y-62258304D01*
X154405257Y-62305923D01*
X154500495Y-62305923D01*
X154643352Y-62258304D01*
X155214780Y-61686876D01*
X155214780Y-62305923D01*
X154214780Y-63163066D02*
X154214780Y-62972590D01*
X154262400Y-62877352D01*
X154310019Y-62829733D01*
X154452876Y-62734495D01*
X154643352Y-62686876D01*
X155024304Y-62686876D01*
X155119542Y-62734495D01*
X155167161Y-62782114D01*
X155214780Y-62877352D01*
X155214780Y-63067828D01*
X155167161Y-63163066D01*
X155119542Y-63210685D01*
X155024304Y-63258304D01*
X154786209Y-63258304D01*
X154690971Y-63210685D01*
X154643352Y-63163066D01*
X154595733Y-63067828D01*
X154595733Y-62877352D01*
X154643352Y-62782114D01*
X154690971Y-62734495D01*
X154786209Y-62686876D01*
X155608457Y-54930380D02*
X155941790Y-54454190D01*
X156179885Y-54930380D02*
X156179885Y-53930380D01*
X155798933Y-53930380D01*
X155703695Y-53978000D01*
X155656076Y-54025619D01*
X155608457Y-54120857D01*
X155608457Y-54263714D01*
X155656076Y-54358952D01*
X155703695Y-54406571D01*
X155798933Y-54454190D01*
X156179885Y-54454190D01*
X155275123Y-53930380D02*
X154656076Y-53930380D01*
X154989409Y-54311333D01*
X154846552Y-54311333D01*
X154751314Y-54358952D01*
X154703695Y-54406571D01*
X154656076Y-54501809D01*
X154656076Y-54739904D01*
X154703695Y-54835142D01*
X154751314Y-54882761D01*
X154846552Y-54930380D01*
X155132266Y-54930380D01*
X155227504Y-54882761D01*
X155275123Y-54835142D01*
X154275123Y-54025619D02*
X154227504Y-53978000D01*
X154132266Y-53930380D01*
X153894171Y-53930380D01*
X153798933Y-53978000D01*
X153751314Y-54025619D01*
X153703695Y-54120857D01*
X153703695Y-54216095D01*
X153751314Y-54358952D01*
X154322742Y-54930380D01*
X153703695Y-54930380D01*
X155608457Y-50409180D02*
X155941790Y-49932990D01*
X156179885Y-50409180D02*
X156179885Y-49409180D01*
X155798933Y-49409180D01*
X155703695Y-49456800D01*
X155656076Y-49504419D01*
X155608457Y-49599657D01*
X155608457Y-49742514D01*
X155656076Y-49837752D01*
X155703695Y-49885371D01*
X155798933Y-49932990D01*
X156179885Y-49932990D01*
X155275123Y-49409180D02*
X154656076Y-49409180D01*
X154989409Y-49790133D01*
X154846552Y-49790133D01*
X154751314Y-49837752D01*
X154703695Y-49885371D01*
X154656076Y-49980609D01*
X154656076Y-50218704D01*
X154703695Y-50313942D01*
X154751314Y-50361561D01*
X154846552Y-50409180D01*
X155132266Y-50409180D01*
X155227504Y-50361561D01*
X155275123Y-50313942D01*
X154322742Y-49409180D02*
X153703695Y-49409180D01*
X154037028Y-49790133D01*
X153894171Y-49790133D01*
X153798933Y-49837752D01*
X153751314Y-49885371D01*
X153703695Y-49980609D01*
X153703695Y-50218704D01*
X153751314Y-50313942D01*
X153798933Y-50361561D01*
X153894171Y-50409180D01*
X154179885Y-50409180D01*
X154275123Y-50361561D01*
X154322742Y-50313942D01*
X150812980Y-42608342D02*
X150336790Y-42275009D01*
X150812980Y-42036914D02*
X149812980Y-42036914D01*
X149812980Y-42417866D01*
X149860600Y-42513104D01*
X149908219Y-42560723D01*
X150003457Y-42608342D01*
X150146314Y-42608342D01*
X150241552Y-42560723D01*
X150289171Y-42513104D01*
X150336790Y-42417866D01*
X150336790Y-42036914D01*
X149812980Y-42941676D02*
X149812980Y-43560723D01*
X150193933Y-43227390D01*
X150193933Y-43370247D01*
X150241552Y-43465485D01*
X150289171Y-43513104D01*
X150384409Y-43560723D01*
X150622504Y-43560723D01*
X150717742Y-43513104D01*
X150765361Y-43465485D01*
X150812980Y-43370247D01*
X150812980Y-43084533D01*
X150765361Y-42989295D01*
X150717742Y-42941676D01*
X150146314Y-44417866D02*
X150812980Y-44417866D01*
X149765361Y-44179771D02*
X150479647Y-43941676D01*
X150479647Y-44560723D01*
X156746380Y-64807942D02*
X156270190Y-64474609D01*
X156746380Y-64236514D02*
X155746380Y-64236514D01*
X155746380Y-64617466D01*
X155794000Y-64712704D01*
X155841619Y-64760323D01*
X155936857Y-64807942D01*
X156079714Y-64807942D01*
X156174952Y-64760323D01*
X156222571Y-64712704D01*
X156270190Y-64617466D01*
X156270190Y-64236514D01*
X155746380Y-65141276D02*
X155746380Y-65760323D01*
X156127333Y-65426990D01*
X156127333Y-65569847D01*
X156174952Y-65665085D01*
X156222571Y-65712704D01*
X156317809Y-65760323D01*
X156555904Y-65760323D01*
X156651142Y-65712704D01*
X156698761Y-65665085D01*
X156746380Y-65569847D01*
X156746380Y-65284133D01*
X156698761Y-65188895D01*
X156651142Y-65141276D01*
X155746380Y-66665085D02*
X155746380Y-66188895D01*
X156222571Y-66141276D01*
X156174952Y-66188895D01*
X156127333Y-66284133D01*
X156127333Y-66522228D01*
X156174952Y-66617466D01*
X156222571Y-66665085D01*
X156317809Y-66712704D01*
X156555904Y-66712704D01*
X156651142Y-66665085D01*
X156698761Y-66617466D01*
X156746380Y-66522228D01*
X156746380Y-66284133D01*
X156698761Y-66188895D01*
X156651142Y-66141276D01*
X154485780Y-65620742D02*
X154009590Y-65287409D01*
X154485780Y-65049314D02*
X153485780Y-65049314D01*
X153485780Y-65430266D01*
X153533400Y-65525504D01*
X153581019Y-65573123D01*
X153676257Y-65620742D01*
X153819114Y-65620742D01*
X153914352Y-65573123D01*
X153961971Y-65525504D01*
X154009590Y-65430266D01*
X154009590Y-65049314D01*
X153485780Y-65954076D02*
X153485780Y-66573123D01*
X153866733Y-66239790D01*
X153866733Y-66382647D01*
X153914352Y-66477885D01*
X153961971Y-66525504D01*
X154057209Y-66573123D01*
X154295304Y-66573123D01*
X154390542Y-66525504D01*
X154438161Y-66477885D01*
X154485780Y-66382647D01*
X154485780Y-66096933D01*
X154438161Y-66001695D01*
X154390542Y-65954076D01*
X153485780Y-67430266D02*
X153485780Y-67239790D01*
X153533400Y-67144552D01*
X153581019Y-67096933D01*
X153723876Y-67001695D01*
X153914352Y-66954076D01*
X154295304Y-66954076D01*
X154390542Y-67001695D01*
X154438161Y-67049314D01*
X154485780Y-67144552D01*
X154485780Y-67335028D01*
X154438161Y-67430266D01*
X154390542Y-67477885D01*
X154295304Y-67525504D01*
X154057209Y-67525504D01*
X153961971Y-67477885D01*
X153914352Y-67430266D01*
X153866733Y-67335028D01*
X153866733Y-67144552D01*
X153914352Y-67049314D01*
X153961971Y-67001695D01*
X154057209Y-66954076D01*
X149804580Y-73799542D02*
X149328390Y-73466209D01*
X149804580Y-73228114D02*
X148804580Y-73228114D01*
X148804580Y-73609066D01*
X148852200Y-73704304D01*
X148899819Y-73751923D01*
X148995057Y-73799542D01*
X149137914Y-73799542D01*
X149233152Y-73751923D01*
X149280771Y-73704304D01*
X149328390Y-73609066D01*
X149328390Y-73228114D01*
X148804580Y-74132876D02*
X148804580Y-74751923D01*
X149185533Y-74418590D01*
X149185533Y-74561447D01*
X149233152Y-74656685D01*
X149280771Y-74704304D01*
X149376009Y-74751923D01*
X149614104Y-74751923D01*
X149709342Y-74704304D01*
X149756961Y-74656685D01*
X149804580Y-74561447D01*
X149804580Y-74275733D01*
X149756961Y-74180495D01*
X149709342Y-74132876D01*
X148804580Y-75085257D02*
X148804580Y-75751923D01*
X149804580Y-75323352D01*
X153106580Y-73824942D02*
X152630390Y-73491609D01*
X153106580Y-73253514D02*
X152106580Y-73253514D01*
X152106580Y-73634466D01*
X152154200Y-73729704D01*
X152201819Y-73777323D01*
X152297057Y-73824942D01*
X152439914Y-73824942D01*
X152535152Y-73777323D01*
X152582771Y-73729704D01*
X152630390Y-73634466D01*
X152630390Y-73253514D01*
X152106580Y-74158276D02*
X152106580Y-74777323D01*
X152487533Y-74443990D01*
X152487533Y-74586847D01*
X152535152Y-74682085D01*
X152582771Y-74729704D01*
X152678009Y-74777323D01*
X152916104Y-74777323D01*
X153011342Y-74729704D01*
X153058961Y-74682085D01*
X153106580Y-74586847D01*
X153106580Y-74301133D01*
X153058961Y-74205895D01*
X153011342Y-74158276D01*
X152535152Y-75348752D02*
X152487533Y-75253514D01*
X152439914Y-75205895D01*
X152344676Y-75158276D01*
X152297057Y-75158276D01*
X152201819Y-75205895D01*
X152154200Y-75253514D01*
X152106580Y-75348752D01*
X152106580Y-75539228D01*
X152154200Y-75634466D01*
X152201819Y-75682085D01*
X152297057Y-75729704D01*
X152344676Y-75729704D01*
X152439914Y-75682085D01*
X152487533Y-75634466D01*
X152535152Y-75539228D01*
X152535152Y-75348752D01*
X152582771Y-75253514D01*
X152630390Y-75205895D01*
X152725628Y-75158276D01*
X152916104Y-75158276D01*
X153011342Y-75205895D01*
X153058961Y-75253514D01*
X153106580Y-75348752D01*
X153106580Y-75539228D01*
X153058961Y-75634466D01*
X153011342Y-75682085D01*
X152916104Y-75729704D01*
X152725628Y-75729704D01*
X152630390Y-75682085D01*
X152582771Y-75634466D01*
X152535152Y-75539228D01*
X151480980Y-74028142D02*
X151004790Y-73694809D01*
X151480980Y-73456714D02*
X150480980Y-73456714D01*
X150480980Y-73837666D01*
X150528600Y-73932904D01*
X150576219Y-73980523D01*
X150671457Y-74028142D01*
X150814314Y-74028142D01*
X150909552Y-73980523D01*
X150957171Y-73932904D01*
X151004790Y-73837666D01*
X151004790Y-73456714D01*
X150480980Y-74361476D02*
X150480980Y-74980523D01*
X150861933Y-74647190D01*
X150861933Y-74790047D01*
X150909552Y-74885285D01*
X150957171Y-74932904D01*
X151052409Y-74980523D01*
X151290504Y-74980523D01*
X151385742Y-74932904D01*
X151433361Y-74885285D01*
X151480980Y-74790047D01*
X151480980Y-74504333D01*
X151433361Y-74409095D01*
X151385742Y-74361476D01*
X151480980Y-75456714D02*
X151480980Y-75647190D01*
X151433361Y-75742428D01*
X151385742Y-75790047D01*
X151242885Y-75885285D01*
X151052409Y-75932904D01*
X150671457Y-75932904D01*
X150576219Y-75885285D01*
X150528600Y-75837666D01*
X150480980Y-75742428D01*
X150480980Y-75551952D01*
X150528600Y-75456714D01*
X150576219Y-75409095D01*
X150671457Y-75361476D01*
X150909552Y-75361476D01*
X151004790Y-75409095D01*
X151052409Y-75456714D01*
X151100028Y-75551952D01*
X151100028Y-75742428D01*
X151052409Y-75837666D01*
X151004790Y-75885285D01*
X150909552Y-75932904D01*
X165466838Y-55725380D02*
X165800171Y-55249190D01*
X166038266Y-55725380D02*
X166038266Y-54725380D01*
X165657314Y-54725380D01*
X165562076Y-54773000D01*
X165514457Y-54820619D01*
X165466838Y-54915857D01*
X165466838Y-55058714D01*
X165514457Y-55153952D01*
X165562076Y-55201571D01*
X165657314Y-55249190D01*
X166038266Y-55249190D01*
X165181123Y-54725380D02*
X164847790Y-55725380D01*
X164514457Y-54725380D01*
X163657314Y-55725380D02*
X164228742Y-55725380D01*
X163943028Y-55725380D02*
X163943028Y-54725380D01*
X164038266Y-54868238D01*
X164133504Y-54963476D01*
X164228742Y-55011095D01*
X156924180Y-46923161D02*
X156447990Y-46589828D01*
X156924180Y-46351733D02*
X155924180Y-46351733D01*
X155924180Y-46732685D01*
X155971800Y-46827923D01*
X156019419Y-46875542D01*
X156114657Y-46923161D01*
X156257514Y-46923161D01*
X156352752Y-46875542D01*
X156400371Y-46827923D01*
X156447990Y-46732685D01*
X156447990Y-46351733D01*
X155924180Y-47208876D02*
X156924180Y-47542209D01*
X155924180Y-47875542D01*
X156019419Y-48161257D02*
X155971800Y-48208876D01*
X155924180Y-48304114D01*
X155924180Y-48542209D01*
X155971800Y-48637447D01*
X156019419Y-48685066D01*
X156114657Y-48732685D01*
X156209895Y-48732685D01*
X156352752Y-48685066D01*
X156924180Y-48113638D01*
X156924180Y-48732685D01*
X116636904Y-110537980D02*
X116636904Y-111347504D01*
X116589285Y-111442742D01*
X116541666Y-111490361D01*
X116446428Y-111537980D01*
X116255952Y-111537980D01*
X116160714Y-111490361D01*
X116113095Y-111442742D01*
X116065476Y-111347504D01*
X116065476Y-110537980D01*
X115160714Y-110871314D02*
X115160714Y-111537980D01*
X115398809Y-110490361D02*
X115636904Y-111204647D01*
X115017857Y-111204647D01*
X152323904Y-56063980D02*
X152323904Y-56873504D01*
X152276285Y-56968742D01*
X152228666Y-57016361D01*
X152133428Y-57063980D01*
X151942952Y-57063980D01*
X151847714Y-57016361D01*
X151800095Y-56968742D01*
X151752476Y-56873504D01*
X151752476Y-56063980D01*
X150847714Y-56063980D02*
X151038190Y-56063980D01*
X151133428Y-56111600D01*
X151181047Y-56159219D01*
X151276285Y-56302076D01*
X151323904Y-56492552D01*
X151323904Y-56873504D01*
X151276285Y-56968742D01*
X151228666Y-57016361D01*
X151133428Y-57063980D01*
X150942952Y-57063980D01*
X150847714Y-57016361D01*
X150800095Y-56968742D01*
X150752476Y-56873504D01*
X150752476Y-56635409D01*
X150800095Y-56540171D01*
X150847714Y-56492552D01*
X150942952Y-56444933D01*
X151133428Y-56444933D01*
X151228666Y-56492552D01*
X151276285Y-56540171D01*
X151323904Y-56635409D01*
X142976704Y-59463180D02*
X142976704Y-60272704D01*
X142929085Y-60367942D01*
X142881466Y-60415561D01*
X142786228Y-60463180D01*
X142595752Y-60463180D01*
X142500514Y-60415561D01*
X142452895Y-60367942D01*
X142405276Y-60272704D01*
X142405276Y-59463180D01*
X142024323Y-59463180D02*
X141357657Y-59463180D01*
X141786228Y-60463180D01*
X136982104Y-59463180D02*
X136982104Y-60272704D01*
X136934485Y-60367942D01*
X136886866Y-60415561D01*
X136791628Y-60463180D01*
X136601152Y-60463180D01*
X136505914Y-60415561D01*
X136458295Y-60367942D01*
X136410676Y-60272704D01*
X136410676Y-59463180D01*
X135791628Y-59891752D02*
X135886866Y-59844133D01*
X135934485Y-59796514D01*
X135982104Y-59701276D01*
X135982104Y-59653657D01*
X135934485Y-59558419D01*
X135886866Y-59510800D01*
X135791628Y-59463180D01*
X135601152Y-59463180D01*
X135505914Y-59510800D01*
X135458295Y-59558419D01*
X135410676Y-59653657D01*
X135410676Y-59701276D01*
X135458295Y-59796514D01*
X135505914Y-59844133D01*
X135601152Y-59891752D01*
X135791628Y-59891752D01*
X135886866Y-59939371D01*
X135934485Y-59986990D01*
X135982104Y-60082228D01*
X135982104Y-60272704D01*
X135934485Y-60367942D01*
X135886866Y-60415561D01*
X135791628Y-60463180D01*
X135601152Y-60463180D01*
X135505914Y-60415561D01*
X135458295Y-60367942D01*
X135410676Y-60272704D01*
X135410676Y-60082228D01*
X135458295Y-59986990D01*
X135505914Y-59939371D01*
X135601152Y-59891752D01*
M02*
