G04 #@! TF.GenerationSoftware,KiCad,Pcbnew,(5.1.2-1)-1*
G04 #@! TF.CreationDate,2019-12-09T19:08:40-07:00*
G04 #@! TF.ProjectId,Snack Machine,536e6163-6b20-44d6-9163-68696e652e6b,rev?*
G04 #@! TF.SameCoordinates,Original*
G04 #@! TF.FileFunction,Legend,Top*
G04 #@! TF.FilePolarity,Positive*
%FSLAX46Y46*%
G04 Gerber Fmt 4.6, Leading zero omitted, Abs format (unit mm)*
G04 Created by KiCad (PCBNEW (5.1.2-1)-1) date 2019-12-09 19:08:40*
%MOMM*%
%LPD*%
G04 APERTURE LIST*
%ADD10C,0.150000*%
%ADD11C,0.450000*%
%ADD12C,0.300000*%
%ADD13C,0.120000*%
%ADD14C,0.127000*%
G04 APERTURE END LIST*
D10*
X101735576Y-75360161D02*
X101878433Y-75407780D01*
X102116528Y-75407780D01*
X102211766Y-75360161D01*
X102259385Y-75312542D01*
X102307004Y-75217304D01*
X102307004Y-75122066D01*
X102259385Y-75026828D01*
X102211766Y-74979209D01*
X102116528Y-74931590D01*
X101926052Y-74883971D01*
X101830814Y-74836352D01*
X101783195Y-74788733D01*
X101735576Y-74693495D01*
X101735576Y-74598257D01*
X101783195Y-74503019D01*
X101830814Y-74455400D01*
X101926052Y-74407780D01*
X102164147Y-74407780D01*
X102307004Y-74455400D01*
X102878433Y-75407780D02*
X102783195Y-75360161D01*
X102735576Y-75312542D01*
X102687957Y-75217304D01*
X102687957Y-74931590D01*
X102735576Y-74836352D01*
X102783195Y-74788733D01*
X102878433Y-74741114D01*
X103021290Y-74741114D01*
X103116528Y-74788733D01*
X103164147Y-74836352D01*
X103211766Y-74931590D01*
X103211766Y-75217304D01*
X103164147Y-75312542D01*
X103116528Y-75360161D01*
X103021290Y-75407780D01*
X102878433Y-75407780D01*
X104068909Y-74741114D02*
X104068909Y-75407780D01*
X103640338Y-74741114D02*
X103640338Y-75264923D01*
X103687957Y-75360161D01*
X103783195Y-75407780D01*
X103926052Y-75407780D01*
X104021290Y-75360161D01*
X104068909Y-75312542D01*
X104545100Y-75407780D02*
X104545100Y-74741114D01*
X104545100Y-74931590D02*
X104592719Y-74836352D01*
X104640338Y-74788733D01*
X104735576Y-74741114D01*
X104830814Y-74741114D01*
X105592719Y-75360161D02*
X105497480Y-75407780D01*
X105307004Y-75407780D01*
X105211766Y-75360161D01*
X105164147Y-75312542D01*
X105116528Y-75217304D01*
X105116528Y-74931590D01*
X105164147Y-74836352D01*
X105211766Y-74788733D01*
X105307004Y-74741114D01*
X105497480Y-74741114D01*
X105592719Y-74788733D01*
X106402242Y-75360161D02*
X106307004Y-75407780D01*
X106116528Y-75407780D01*
X106021290Y-75360161D01*
X105973671Y-75264923D01*
X105973671Y-74883971D01*
X106021290Y-74788733D01*
X106116528Y-74741114D01*
X106307004Y-74741114D01*
X106402242Y-74788733D01*
X106449861Y-74883971D01*
X106449861Y-74979209D01*
X105973671Y-75074447D01*
X106878433Y-75312542D02*
X106926052Y-75360161D01*
X106878433Y-75407780D01*
X106830814Y-75360161D01*
X106878433Y-75312542D01*
X106878433Y-75407780D01*
X106878433Y-74788733D02*
X106926052Y-74836352D01*
X106878433Y-74883971D01*
X106830814Y-74836352D01*
X106878433Y-74788733D01*
X106878433Y-74883971D01*
X108116528Y-75407780D02*
X108116528Y-74407780D01*
X108545100Y-75407780D02*
X108545100Y-74883971D01*
X108497480Y-74788733D01*
X108402242Y-74741114D01*
X108259385Y-74741114D01*
X108164147Y-74788733D01*
X108116528Y-74836352D01*
X108878433Y-74741114D02*
X109259385Y-74741114D01*
X109021290Y-74407780D02*
X109021290Y-75264923D01*
X109068909Y-75360161D01*
X109164147Y-75407780D01*
X109259385Y-75407780D01*
X109449861Y-74741114D02*
X109830814Y-74741114D01*
X109592719Y-74407780D02*
X109592719Y-75264923D01*
X109640338Y-75360161D01*
X109735576Y-75407780D01*
X109830814Y-75407780D01*
X110164147Y-74741114D02*
X110164147Y-75741114D01*
X110164147Y-74788733D02*
X110259385Y-74741114D01*
X110449861Y-74741114D01*
X110545100Y-74788733D01*
X110592719Y-74836352D01*
X110640338Y-74931590D01*
X110640338Y-75217304D01*
X110592719Y-75312542D01*
X110545100Y-75360161D01*
X110449861Y-75407780D01*
X110259385Y-75407780D01*
X110164147Y-75360161D01*
X111021290Y-75360161D02*
X111116528Y-75407780D01*
X111307004Y-75407780D01*
X111402242Y-75360161D01*
X111449861Y-75264923D01*
X111449861Y-75217304D01*
X111402242Y-75122066D01*
X111307004Y-75074447D01*
X111164147Y-75074447D01*
X111068909Y-75026828D01*
X111021290Y-74931590D01*
X111021290Y-74883971D01*
X111068909Y-74788733D01*
X111164147Y-74741114D01*
X111307004Y-74741114D01*
X111402242Y-74788733D01*
X111878433Y-75312542D02*
X111926052Y-75360161D01*
X111878433Y-75407780D01*
X111830814Y-75360161D01*
X111878433Y-75312542D01*
X111878433Y-75407780D01*
X111878433Y-74788733D02*
X111926052Y-74836352D01*
X111878433Y-74883971D01*
X111830814Y-74836352D01*
X111878433Y-74788733D01*
X111878433Y-74883971D01*
X113068909Y-74360161D02*
X112211766Y-75645876D01*
X114116528Y-74360161D02*
X113259385Y-75645876D01*
X114878433Y-74741114D02*
X114878433Y-75550638D01*
X114830814Y-75645876D01*
X114783195Y-75693495D01*
X114687957Y-75741114D01*
X114545100Y-75741114D01*
X114449861Y-75693495D01*
X114878433Y-75360161D02*
X114783195Y-75407780D01*
X114592719Y-75407780D01*
X114497480Y-75360161D01*
X114449861Y-75312542D01*
X114402242Y-75217304D01*
X114402242Y-74931590D01*
X114449861Y-74836352D01*
X114497480Y-74788733D01*
X114592719Y-74741114D01*
X114783195Y-74741114D01*
X114878433Y-74788733D01*
X115354623Y-75407780D02*
X115354623Y-74741114D01*
X115354623Y-74407780D02*
X115307004Y-74455400D01*
X115354623Y-74503019D01*
X115402242Y-74455400D01*
X115354623Y-74407780D01*
X115354623Y-74503019D01*
X115687957Y-74741114D02*
X116068909Y-74741114D01*
X115830814Y-74407780D02*
X115830814Y-75264923D01*
X115878433Y-75360161D01*
X115973671Y-75407780D01*
X116068909Y-75407780D01*
X116402242Y-75407780D02*
X116402242Y-74407780D01*
X116830814Y-75407780D02*
X116830814Y-74883971D01*
X116783195Y-74788733D01*
X116687957Y-74741114D01*
X116545100Y-74741114D01*
X116449861Y-74788733D01*
X116402242Y-74836352D01*
X117735576Y-74741114D02*
X117735576Y-75407780D01*
X117307004Y-74741114D02*
X117307004Y-75264923D01*
X117354623Y-75360161D01*
X117449861Y-75407780D01*
X117592719Y-75407780D01*
X117687957Y-75360161D01*
X117735576Y-75312542D01*
X118211766Y-75407780D02*
X118211766Y-74407780D01*
X118211766Y-74788733D02*
X118307004Y-74741114D01*
X118497480Y-74741114D01*
X118592719Y-74788733D01*
X118640338Y-74836352D01*
X118687957Y-74931590D01*
X118687957Y-75217304D01*
X118640338Y-75312542D01*
X118592719Y-75360161D01*
X118497480Y-75407780D01*
X118307004Y-75407780D01*
X118211766Y-75360161D01*
X119116528Y-75312542D02*
X119164147Y-75360161D01*
X119116528Y-75407780D01*
X119068909Y-75360161D01*
X119116528Y-75312542D01*
X119116528Y-75407780D01*
X120021290Y-75360161D02*
X119926052Y-75407780D01*
X119735576Y-75407780D01*
X119640338Y-75360161D01*
X119592719Y-75312542D01*
X119545100Y-75217304D01*
X119545100Y-74931590D01*
X119592719Y-74836352D01*
X119640338Y-74788733D01*
X119735576Y-74741114D01*
X119926052Y-74741114D01*
X120021290Y-74788733D01*
X120592719Y-75407780D02*
X120497480Y-75360161D01*
X120449861Y-75312542D01*
X120402242Y-75217304D01*
X120402242Y-74931590D01*
X120449861Y-74836352D01*
X120497480Y-74788733D01*
X120592719Y-74741114D01*
X120735576Y-74741114D01*
X120830814Y-74788733D01*
X120878433Y-74836352D01*
X120926052Y-74931590D01*
X120926052Y-75217304D01*
X120878433Y-75312542D01*
X120830814Y-75360161D01*
X120735576Y-75407780D01*
X120592719Y-75407780D01*
X121354623Y-75407780D02*
X121354623Y-74741114D01*
X121354623Y-74836352D02*
X121402242Y-74788733D01*
X121497480Y-74741114D01*
X121640338Y-74741114D01*
X121735576Y-74788733D01*
X121783195Y-74883971D01*
X121783195Y-75407780D01*
X121783195Y-74883971D02*
X121830814Y-74788733D01*
X121926052Y-74741114D01*
X122068909Y-74741114D01*
X122164147Y-74788733D01*
X122211766Y-74883971D01*
X122211766Y-75407780D01*
X123402242Y-74360161D02*
X122545100Y-75645876D01*
X124021290Y-74407780D02*
X124021290Y-75122066D01*
X123973671Y-75264923D01*
X123878433Y-75360161D01*
X123735576Y-75407780D01*
X123640338Y-75407780D01*
X124497480Y-74741114D02*
X124497480Y-75407780D01*
X124497480Y-74836352D02*
X124545100Y-74788733D01*
X124640338Y-74741114D01*
X124783195Y-74741114D01*
X124878433Y-74788733D01*
X124926052Y-74883971D01*
X124926052Y-75407780D01*
X125783195Y-75360161D02*
X125687957Y-75407780D01*
X125497480Y-75407780D01*
X125402242Y-75360161D01*
X125354623Y-75264923D01*
X125354623Y-74883971D01*
X125402242Y-74788733D01*
X125497480Y-74741114D01*
X125687957Y-74741114D01*
X125783195Y-74788733D01*
X125830814Y-74883971D01*
X125830814Y-74979209D01*
X125354623Y-75074447D01*
X126211766Y-75360161D02*
X126307004Y-75407780D01*
X126497480Y-75407780D01*
X126592719Y-75360161D01*
X126640338Y-75264923D01*
X126640338Y-75217304D01*
X126592719Y-75122066D01*
X126497480Y-75074447D01*
X126354623Y-75074447D01*
X126259385Y-75026828D01*
X126211766Y-74931590D01*
X126211766Y-74883971D01*
X126259385Y-74788733D01*
X126354623Y-74741114D01*
X126497480Y-74741114D01*
X126592719Y-74788733D01*
X127021290Y-75360161D02*
X127116528Y-75407780D01*
X127307004Y-75407780D01*
X127402242Y-75360161D01*
X127449861Y-75264923D01*
X127449861Y-75217304D01*
X127402242Y-75122066D01*
X127307004Y-75074447D01*
X127164147Y-75074447D01*
X127068909Y-75026828D01*
X127021290Y-74931590D01*
X127021290Y-74883971D01*
X127068909Y-74788733D01*
X127164147Y-74741114D01*
X127307004Y-74741114D01*
X127402242Y-74788733D01*
X128259385Y-75360161D02*
X128164147Y-75407780D01*
X127973671Y-75407780D01*
X127878433Y-75360161D01*
X127830814Y-75264923D01*
X127830814Y-74883971D01*
X127878433Y-74788733D01*
X127973671Y-74741114D01*
X128164147Y-74741114D01*
X128259385Y-74788733D01*
X128307004Y-74883971D01*
X128307004Y-74979209D01*
X127830814Y-75074447D01*
X128878433Y-75407780D02*
X128783195Y-75360161D01*
X128735576Y-75264923D01*
X128735576Y-74407780D01*
X129259385Y-75407780D02*
X129259385Y-74741114D01*
X129259385Y-74931590D02*
X129307004Y-74836352D01*
X129354623Y-74788733D01*
X129449861Y-74741114D01*
X129545100Y-74741114D01*
X130592719Y-74360161D02*
X129735576Y-75645876D01*
X130783195Y-74407780D02*
X131116528Y-75407780D01*
X131449861Y-74407780D01*
X132164147Y-75360161D02*
X132068909Y-75407780D01*
X131878433Y-75407780D01*
X131783195Y-75360161D01*
X131735576Y-75264923D01*
X131735576Y-74883971D01*
X131783195Y-74788733D01*
X131878433Y-74741114D01*
X132068909Y-74741114D01*
X132164147Y-74788733D01*
X132211766Y-74883971D01*
X132211766Y-74979209D01*
X131735576Y-75074447D01*
X132640338Y-74741114D02*
X132640338Y-75407780D01*
X132640338Y-74836352D02*
X132687957Y-74788733D01*
X132783195Y-74741114D01*
X132926052Y-74741114D01*
X133021290Y-74788733D01*
X133068909Y-74883971D01*
X133068909Y-75407780D01*
X133973671Y-75407780D02*
X133973671Y-74407780D01*
X133973671Y-75360161D02*
X133878433Y-75407780D01*
X133687957Y-75407780D01*
X133592719Y-75360161D01*
X133545100Y-75312542D01*
X133497480Y-75217304D01*
X133497480Y-74931590D01*
X133545100Y-74836352D01*
X133592719Y-74788733D01*
X133687957Y-74741114D01*
X133878433Y-74741114D01*
X133973671Y-74788733D01*
X134449861Y-75407780D02*
X134449861Y-74741114D01*
X134449861Y-74407780D02*
X134402242Y-74455400D01*
X134449861Y-74503019D01*
X134497480Y-74455400D01*
X134449861Y-74407780D01*
X134449861Y-74503019D01*
X134926052Y-74741114D02*
X134926052Y-75407780D01*
X134926052Y-74836352D02*
X134973671Y-74788733D01*
X135068909Y-74741114D01*
X135211766Y-74741114D01*
X135307004Y-74788733D01*
X135354623Y-74883971D01*
X135354623Y-75407780D01*
X136259385Y-74741114D02*
X136259385Y-75550638D01*
X136211766Y-75645876D01*
X136164147Y-75693495D01*
X136068909Y-75741114D01*
X135926052Y-75741114D01*
X135830814Y-75693495D01*
X136259385Y-75360161D02*
X136164147Y-75407780D01*
X135973671Y-75407780D01*
X135878433Y-75360161D01*
X135830814Y-75312542D01*
X135783195Y-75217304D01*
X135783195Y-74931590D01*
X135830814Y-74836352D01*
X135878433Y-74788733D01*
X135973671Y-74741114D01*
X136164147Y-74741114D01*
X136259385Y-74788733D01*
X136735576Y-75026828D02*
X137497480Y-75026828D01*
X137973671Y-75407780D02*
X137973671Y-74407780D01*
X138307004Y-75122066D01*
X138640338Y-74407780D01*
X138640338Y-75407780D01*
X139545100Y-75407780D02*
X139545100Y-74883971D01*
X139497480Y-74788733D01*
X139402242Y-74741114D01*
X139211766Y-74741114D01*
X139116528Y-74788733D01*
X139545100Y-75360161D02*
X139449861Y-75407780D01*
X139211766Y-75407780D01*
X139116528Y-75360161D01*
X139068909Y-75264923D01*
X139068909Y-75169685D01*
X139116528Y-75074447D01*
X139211766Y-75026828D01*
X139449861Y-75026828D01*
X139545100Y-74979209D01*
X140449861Y-75360161D02*
X140354623Y-75407780D01*
X140164147Y-75407780D01*
X140068909Y-75360161D01*
X140021290Y-75312542D01*
X139973671Y-75217304D01*
X139973671Y-74931590D01*
X140021290Y-74836352D01*
X140068909Y-74788733D01*
X140164147Y-74741114D01*
X140354623Y-74741114D01*
X140449861Y-74788733D01*
X140878433Y-75407780D02*
X140878433Y-74407780D01*
X141307004Y-75407780D02*
X141307004Y-74883971D01*
X141259385Y-74788733D01*
X141164147Y-74741114D01*
X141021290Y-74741114D01*
X140926052Y-74788733D01*
X140878433Y-74836352D01*
X141783195Y-75407780D02*
X141783195Y-74741114D01*
X141783195Y-74407780D02*
X141735576Y-74455400D01*
X141783195Y-74503019D01*
X141830814Y-74455400D01*
X141783195Y-74407780D01*
X141783195Y-74503019D01*
X142259385Y-74741114D02*
X142259385Y-75407780D01*
X142259385Y-74836352D02*
X142307004Y-74788733D01*
X142402242Y-74741114D01*
X142545100Y-74741114D01*
X142640338Y-74788733D01*
X142687957Y-74883971D01*
X142687957Y-75407780D01*
X143545100Y-75360161D02*
X143449861Y-75407780D01*
X143259385Y-75407780D01*
X143164147Y-75360161D01*
X143116528Y-75264923D01*
X143116528Y-74883971D01*
X143164147Y-74788733D01*
X143259385Y-74741114D01*
X143449861Y-74741114D01*
X143545100Y-74788733D01*
X143592719Y-74883971D01*
X143592719Y-74979209D01*
X143116528Y-75074447D01*
X152428571Y-81666666D02*
X152428571Y-81333333D01*
X152952380Y-81190476D02*
X152952380Y-81666666D01*
X151952380Y-81666666D01*
X151952380Y-81190476D01*
X151952380Y-80857142D02*
X152952380Y-80190476D01*
X151952380Y-80190476D02*
X152952380Y-80857142D01*
X152952380Y-79809523D02*
X151952380Y-79809523D01*
X151952380Y-79428571D01*
X152000000Y-79333333D01*
X152047619Y-79285714D01*
X152142857Y-79238095D01*
X152285714Y-79238095D01*
X152380952Y-79285714D01*
X152428571Y-79333333D01*
X152476190Y-79428571D01*
X152476190Y-79809523D01*
X152047619Y-78857142D02*
X152000000Y-78809523D01*
X151952380Y-78714285D01*
X151952380Y-78476190D01*
X152000000Y-78380952D01*
X152047619Y-78333333D01*
X152142857Y-78285714D01*
X152238095Y-78285714D01*
X152380952Y-78333333D01*
X152952380Y-78904761D01*
X152952380Y-78285714D01*
X152428571Y-91666666D02*
X152428571Y-91333333D01*
X152952380Y-91190476D02*
X152952380Y-91666666D01*
X151952380Y-91666666D01*
X151952380Y-91190476D01*
X151952380Y-90857142D02*
X152952380Y-90190476D01*
X151952380Y-90190476D02*
X152952380Y-90857142D01*
X152952380Y-89809523D02*
X151952380Y-89809523D01*
X151952380Y-89428571D01*
X152000000Y-89333333D01*
X152047619Y-89285714D01*
X152142857Y-89238095D01*
X152285714Y-89238095D01*
X152380952Y-89285714D01*
X152428571Y-89333333D01*
X152476190Y-89428571D01*
X152476190Y-89809523D01*
X152952380Y-88285714D02*
X152952380Y-88857142D01*
X152952380Y-88571428D02*
X151952380Y-88571428D01*
X152095238Y-88666666D01*
X152190476Y-88761904D01*
X152238095Y-88857142D01*
X168092976Y-121783180D02*
X168092976Y-120783180D01*
X168664404Y-121783180D01*
X168664404Y-120783180D01*
X169712023Y-121687942D02*
X169664404Y-121735561D01*
X169521547Y-121783180D01*
X169426309Y-121783180D01*
X169283452Y-121735561D01*
X169188214Y-121640323D01*
X169140595Y-121545085D01*
X169092976Y-121354609D01*
X169092976Y-121211752D01*
X169140595Y-121021276D01*
X169188214Y-120926038D01*
X169283452Y-120830800D01*
X169426309Y-120783180D01*
X169521547Y-120783180D01*
X169664404Y-120830800D01*
X169712023Y-120878419D01*
X166712023Y-119243180D02*
X166712023Y-118243180D01*
X166950119Y-118243180D01*
X167092976Y-118290800D01*
X167188214Y-118386038D01*
X167235833Y-118481276D01*
X167283452Y-118671752D01*
X167283452Y-118814609D01*
X167235833Y-119005085D01*
X167188214Y-119100323D01*
X167092976Y-119195561D01*
X166950119Y-119243180D01*
X166712023Y-119243180D01*
X168140595Y-119243180D02*
X168140595Y-118719371D01*
X168092976Y-118624133D01*
X167997738Y-118576514D01*
X167807261Y-118576514D01*
X167712023Y-118624133D01*
X168140595Y-119195561D02*
X168045357Y-119243180D01*
X167807261Y-119243180D01*
X167712023Y-119195561D01*
X167664404Y-119100323D01*
X167664404Y-119005085D01*
X167712023Y-118909847D01*
X167807261Y-118862228D01*
X168045357Y-118862228D01*
X168140595Y-118814609D01*
X168473928Y-118576514D02*
X168854880Y-118576514D01*
X168616785Y-118243180D02*
X168616785Y-119100323D01*
X168664404Y-119195561D01*
X168759642Y-119243180D01*
X168854880Y-119243180D01*
X169712023Y-119243180D02*
X169140595Y-119243180D01*
X169426309Y-119243180D02*
X169426309Y-118243180D01*
X169331071Y-118386038D01*
X169235833Y-118481276D01*
X169140595Y-118528895D01*
X166712023Y-116703180D02*
X166712023Y-115703180D01*
X166950119Y-115703180D01*
X167092976Y-115750800D01*
X167188214Y-115846038D01*
X167235833Y-115941276D01*
X167283452Y-116131752D01*
X167283452Y-116274609D01*
X167235833Y-116465085D01*
X167188214Y-116560323D01*
X167092976Y-116655561D01*
X166950119Y-116703180D01*
X166712023Y-116703180D01*
X168140595Y-116703180D02*
X168140595Y-116179371D01*
X168092976Y-116084133D01*
X167997738Y-116036514D01*
X167807261Y-116036514D01*
X167712023Y-116084133D01*
X168140595Y-116655561D02*
X168045357Y-116703180D01*
X167807261Y-116703180D01*
X167712023Y-116655561D01*
X167664404Y-116560323D01*
X167664404Y-116465085D01*
X167712023Y-116369847D01*
X167807261Y-116322228D01*
X168045357Y-116322228D01*
X168140595Y-116274609D01*
X168473928Y-116036514D02*
X168854880Y-116036514D01*
X168616785Y-115703180D02*
X168616785Y-116560323D01*
X168664404Y-116655561D01*
X168759642Y-116703180D01*
X168854880Y-116703180D01*
X169378690Y-115703180D02*
X169473928Y-115703180D01*
X169569166Y-115750800D01*
X169616785Y-115798419D01*
X169664404Y-115893657D01*
X169712023Y-116084133D01*
X169712023Y-116322228D01*
X169664404Y-116512704D01*
X169616785Y-116607942D01*
X169569166Y-116655561D01*
X169473928Y-116703180D01*
X169378690Y-116703180D01*
X169283452Y-116655561D01*
X169235833Y-116607942D01*
X169188214Y-116512704D01*
X169140595Y-116322228D01*
X169140595Y-116084133D01*
X169188214Y-115893657D01*
X169235833Y-115798419D01*
X169283452Y-115750800D01*
X169378690Y-115703180D01*
X168092976Y-114163180D02*
X168092976Y-113163180D01*
X168664404Y-114163180D01*
X168664404Y-113163180D01*
X169712023Y-114067942D02*
X169664404Y-114115561D01*
X169521547Y-114163180D01*
X169426309Y-114163180D01*
X169283452Y-114115561D01*
X169188214Y-114020323D01*
X169140595Y-113925085D01*
X169092976Y-113734609D01*
X169092976Y-113591752D01*
X169140595Y-113401276D01*
X169188214Y-113306038D01*
X169283452Y-113210800D01*
X169426309Y-113163180D01*
X169521547Y-113163180D01*
X169664404Y-113210800D01*
X169712023Y-113258419D01*
X166854880Y-111099371D02*
X166997738Y-111146990D01*
X167045357Y-111194609D01*
X167092976Y-111289847D01*
X167092976Y-111432704D01*
X167045357Y-111527942D01*
X166997738Y-111575561D01*
X166902500Y-111623180D01*
X166521547Y-111623180D01*
X166521547Y-110623180D01*
X166854880Y-110623180D01*
X166950119Y-110670800D01*
X166997738Y-110718419D01*
X167045357Y-110813657D01*
X167045357Y-110908895D01*
X166997738Y-111004133D01*
X166950119Y-111051752D01*
X166854880Y-111099371D01*
X166521547Y-111099371D01*
X167902500Y-111575561D02*
X167807261Y-111623180D01*
X167616785Y-111623180D01*
X167521547Y-111575561D01*
X167473928Y-111480323D01*
X167473928Y-111099371D01*
X167521547Y-111004133D01*
X167616785Y-110956514D01*
X167807261Y-110956514D01*
X167902500Y-111004133D01*
X167950119Y-111099371D01*
X167950119Y-111194609D01*
X167473928Y-111289847D01*
X168759642Y-111575561D02*
X168664404Y-111623180D01*
X168473928Y-111623180D01*
X168378690Y-111575561D01*
X168331071Y-111480323D01*
X168331071Y-111099371D01*
X168378690Y-111004133D01*
X168473928Y-110956514D01*
X168664404Y-110956514D01*
X168759642Y-111004133D01*
X168807261Y-111099371D01*
X168807261Y-111194609D01*
X168331071Y-111289847D01*
X169235833Y-110956514D02*
X169235833Y-111956514D01*
X169235833Y-111004133D02*
X169331071Y-110956514D01*
X169521547Y-110956514D01*
X169616785Y-111004133D01*
X169664404Y-111051752D01*
X169712023Y-111146990D01*
X169712023Y-111432704D01*
X169664404Y-111527942D01*
X169616785Y-111575561D01*
X169521547Y-111623180D01*
X169331071Y-111623180D01*
X169235833Y-111575561D01*
X167950119Y-109083180D02*
X167616785Y-108606990D01*
X167378690Y-109083180D02*
X167378690Y-108083180D01*
X167759642Y-108083180D01*
X167854880Y-108130800D01*
X167902500Y-108178419D01*
X167950119Y-108273657D01*
X167950119Y-108416514D01*
X167902500Y-108511752D01*
X167854880Y-108559371D01*
X167759642Y-108606990D01*
X167378690Y-108606990D01*
X168759642Y-109035561D02*
X168664404Y-109083180D01*
X168473928Y-109083180D01*
X168378690Y-109035561D01*
X168331071Y-108940323D01*
X168331071Y-108559371D01*
X168378690Y-108464133D01*
X168473928Y-108416514D01*
X168664404Y-108416514D01*
X168759642Y-108464133D01*
X168807261Y-108559371D01*
X168807261Y-108654609D01*
X168331071Y-108749847D01*
X169664404Y-109083180D02*
X169664404Y-108083180D01*
X169664404Y-109035561D02*
X169569166Y-109083180D01*
X169378690Y-109083180D01*
X169283452Y-109035561D01*
X169235833Y-108987942D01*
X169188214Y-108892704D01*
X169188214Y-108606990D01*
X169235833Y-108511752D01*
X169283452Y-108464133D01*
X169378690Y-108416514D01*
X169569166Y-108416514D01*
X169664404Y-108464133D01*
X166426309Y-105590800D02*
X166331071Y-105543180D01*
X166188214Y-105543180D01*
X166045357Y-105590800D01*
X165950119Y-105686038D01*
X165902500Y-105781276D01*
X165854880Y-105971752D01*
X165854880Y-106114609D01*
X165902500Y-106305085D01*
X165950119Y-106400323D01*
X166045357Y-106495561D01*
X166188214Y-106543180D01*
X166283452Y-106543180D01*
X166426309Y-106495561D01*
X166473928Y-106447942D01*
X166473928Y-106114609D01*
X166283452Y-106114609D01*
X166902500Y-106543180D02*
X166902500Y-105876514D01*
X166902500Y-106066990D02*
X166950119Y-105971752D01*
X166997738Y-105924133D01*
X167092976Y-105876514D01*
X167188214Y-105876514D01*
X167902500Y-106495561D02*
X167807261Y-106543180D01*
X167616785Y-106543180D01*
X167521547Y-106495561D01*
X167473928Y-106400323D01*
X167473928Y-106019371D01*
X167521547Y-105924133D01*
X167616785Y-105876514D01*
X167807261Y-105876514D01*
X167902500Y-105924133D01*
X167950119Y-106019371D01*
X167950119Y-106114609D01*
X167473928Y-106209847D01*
X168759642Y-106495561D02*
X168664404Y-106543180D01*
X168473928Y-106543180D01*
X168378690Y-106495561D01*
X168331071Y-106400323D01*
X168331071Y-106019371D01*
X168378690Y-105924133D01*
X168473928Y-105876514D01*
X168664404Y-105876514D01*
X168759642Y-105924133D01*
X168807261Y-106019371D01*
X168807261Y-106114609D01*
X168331071Y-106209847D01*
X169235833Y-105876514D02*
X169235833Y-106543180D01*
X169235833Y-105971752D02*
X169283452Y-105924133D01*
X169378690Y-105876514D01*
X169521547Y-105876514D01*
X169616785Y-105924133D01*
X169664404Y-106019371D01*
X169664404Y-106543180D01*
X167616785Y-103050800D02*
X167521547Y-103003180D01*
X167378690Y-103003180D01*
X167235833Y-103050800D01*
X167140595Y-103146038D01*
X167092976Y-103241276D01*
X167045357Y-103431752D01*
X167045357Y-103574609D01*
X167092976Y-103765085D01*
X167140595Y-103860323D01*
X167235833Y-103955561D01*
X167378690Y-104003180D01*
X167473928Y-104003180D01*
X167616785Y-103955561D01*
X167664404Y-103907942D01*
X167664404Y-103574609D01*
X167473928Y-103574609D01*
X168092976Y-104003180D02*
X168092976Y-103003180D01*
X168664404Y-104003180D01*
X168664404Y-103003180D01*
X169140595Y-104003180D02*
X169140595Y-103003180D01*
X169378690Y-103003180D01*
X169521547Y-103050800D01*
X169616785Y-103146038D01*
X169664404Y-103241276D01*
X169712023Y-103431752D01*
X169712023Y-103574609D01*
X169664404Y-103765085D01*
X169616785Y-103860323D01*
X169521547Y-103955561D01*
X169378690Y-104003180D01*
X169140595Y-104003180D01*
X167616785Y-100510800D02*
X167521547Y-100463180D01*
X167378690Y-100463180D01*
X167235833Y-100510800D01*
X167140595Y-100606038D01*
X167092976Y-100701276D01*
X167045357Y-100891752D01*
X167045357Y-101034609D01*
X167092976Y-101225085D01*
X167140595Y-101320323D01*
X167235833Y-101415561D01*
X167378690Y-101463180D01*
X167473928Y-101463180D01*
X167616785Y-101415561D01*
X167664404Y-101367942D01*
X167664404Y-101034609D01*
X167473928Y-101034609D01*
X168092976Y-101463180D02*
X168092976Y-100463180D01*
X168664404Y-101463180D01*
X168664404Y-100463180D01*
X169140595Y-101463180D02*
X169140595Y-100463180D01*
X169378690Y-100463180D01*
X169521547Y-100510800D01*
X169616785Y-100606038D01*
X169664404Y-100701276D01*
X169712023Y-100891752D01*
X169712023Y-101034609D01*
X169664404Y-101225085D01*
X169616785Y-101320323D01*
X169521547Y-101415561D01*
X169378690Y-101463180D01*
X169140595Y-101463180D01*
X167092976Y-98542228D02*
X167854880Y-98542228D01*
X167473928Y-98923180D02*
X167473928Y-98161276D01*
X168807261Y-97923180D02*
X168331071Y-97923180D01*
X168283452Y-98399371D01*
X168331071Y-98351752D01*
X168426309Y-98304133D01*
X168664404Y-98304133D01*
X168759642Y-98351752D01*
X168807261Y-98399371D01*
X168854880Y-98494609D01*
X168854880Y-98732704D01*
X168807261Y-98827942D01*
X168759642Y-98875561D01*
X168664404Y-98923180D01*
X168426309Y-98923180D01*
X168331071Y-98875561D01*
X168283452Y-98827942D01*
X169140595Y-97923180D02*
X169473928Y-98923180D01*
X169807261Y-97923180D01*
D11*
X104826142Y-78614285D02*
X107111857Y-78614285D01*
X105969000Y-79757142D02*
X105969000Y-77471428D01*
D12*
X130257428Y-49009771D02*
X130186000Y-49081200D01*
X130043142Y-49152628D01*
X129686000Y-49152628D01*
X129543142Y-49081200D01*
X129471714Y-49009771D01*
X129400285Y-48866914D01*
X129400285Y-48724057D01*
X129471714Y-48509771D01*
X130328857Y-47652628D01*
X129400285Y-47652628D01*
X128043142Y-49152628D02*
X128757428Y-49152628D01*
X128828857Y-48438342D01*
X128757428Y-48509771D01*
X128614571Y-48581200D01*
X128257428Y-48581200D01*
X128114571Y-48509771D01*
X128043142Y-48438342D01*
X127971714Y-48295485D01*
X127971714Y-47938342D01*
X128043142Y-47795485D01*
X128114571Y-47724057D01*
X128257428Y-47652628D01*
X128614571Y-47652628D01*
X128757428Y-47724057D01*
X128828857Y-47795485D01*
X126686000Y-49152628D02*
X126971714Y-49152628D01*
X127114571Y-49081200D01*
X127186000Y-49009771D01*
X127328857Y-48795485D01*
X127400285Y-48509771D01*
X127400285Y-47938342D01*
X127328857Y-47795485D01*
X127257428Y-47724057D01*
X127114571Y-47652628D01*
X126828857Y-47652628D01*
X126686000Y-47724057D01*
X126614571Y-47795485D01*
X126543142Y-47938342D01*
X126543142Y-48295485D01*
X126614571Y-48438342D01*
X126686000Y-48509771D01*
X126828857Y-48581200D01*
X127114571Y-48581200D01*
X127257428Y-48509771D01*
X127328857Y-48438342D01*
X127400285Y-48295485D01*
X125614571Y-49152628D02*
X125471714Y-49152628D01*
X125328857Y-49081200D01*
X125257428Y-49009771D01*
X125186000Y-48866914D01*
X125114571Y-48581200D01*
X125114571Y-48224057D01*
X125186000Y-47938342D01*
X125257428Y-47795485D01*
X125328857Y-47724057D01*
X125471714Y-47652628D01*
X125614571Y-47652628D01*
X125757428Y-47724057D01*
X125828857Y-47795485D01*
X125900285Y-47938342D01*
X125971714Y-48224057D01*
X125971714Y-48581200D01*
X125900285Y-48866914D01*
X125828857Y-49009771D01*
X125757428Y-49081200D01*
X125614571Y-49152628D01*
X141155714Y-47652628D02*
X142012857Y-47652628D01*
X141584285Y-47652628D02*
X141584285Y-49152628D01*
X141727142Y-48938342D01*
X141870000Y-48795485D01*
X142012857Y-48724057D01*
X139870000Y-49152628D02*
X140155714Y-49152628D01*
X140298571Y-49081200D01*
X140370000Y-49009771D01*
X140512857Y-48795485D01*
X140584285Y-48509771D01*
X140584285Y-47938342D01*
X140512857Y-47795485D01*
X140441428Y-47724057D01*
X140298571Y-47652628D01*
X140012857Y-47652628D01*
X139870000Y-47724057D01*
X139798571Y-47795485D01*
X139727142Y-47938342D01*
X139727142Y-48295485D01*
X139798571Y-48438342D01*
X139870000Y-48509771D01*
X140012857Y-48581200D01*
X140298571Y-48581200D01*
X140441428Y-48509771D01*
X140512857Y-48438342D01*
X140584285Y-48295485D01*
X139084285Y-49152628D02*
X139084285Y-47938342D01*
X139012857Y-47795485D01*
X138941428Y-47724057D01*
X138798571Y-47652628D01*
X138512857Y-47652628D01*
X138370000Y-47724057D01*
X138298571Y-47795485D01*
X138227142Y-47938342D01*
X138227142Y-49152628D01*
X137584285Y-49009771D02*
X137512857Y-49081200D01*
X137370000Y-49152628D01*
X137012857Y-49152628D01*
X136870000Y-49081200D01*
X136798571Y-49009771D01*
X136727142Y-48866914D01*
X136727142Y-48724057D01*
X136798571Y-48509771D01*
X137655714Y-47652628D01*
X136727142Y-47652628D01*
D13*
X147496000Y-96937600D02*
X147496000Y-96237600D01*
X147496000Y-96237600D02*
X146796000Y-96237600D01*
X147496000Y-109757600D02*
X147496000Y-110457600D01*
X147496000Y-110457600D02*
X146796000Y-110457600D01*
X133276000Y-96937600D02*
X133276000Y-96237600D01*
X133276000Y-96237600D02*
X133976000Y-96237600D01*
X133276000Y-109757600D02*
X133276000Y-110457600D01*
X133276000Y-110457600D02*
X133976000Y-110457600D01*
X146796000Y-96237600D02*
X146796000Y-94947600D01*
X126015600Y-103146000D02*
X126015600Y-102996000D01*
X123615600Y-103146000D02*
X123615600Y-102996000D01*
X123615600Y-100596000D02*
X123615600Y-100546000D01*
X123615600Y-99546000D02*
X123615600Y-99696000D01*
X126015600Y-99546000D02*
X126015600Y-99696000D01*
X124015600Y-99346000D02*
X123615600Y-99346000D01*
X124015600Y-99546000D02*
X123615600Y-99546000D01*
X124015600Y-103146000D02*
X123615600Y-103146000D01*
X126015600Y-99346000D02*
X124015600Y-99346000D01*
X123615600Y-100596000D02*
X123215600Y-100596000D01*
X124015600Y-99546000D02*
X126015600Y-99546000D01*
X126015600Y-103146000D02*
X124015600Y-103146000D01*
X143330000Y-41670000D02*
X143330000Y-43000000D01*
X142000000Y-41670000D02*
X143330000Y-41670000D01*
X143330000Y-44270000D02*
X143330000Y-46870000D01*
X140730000Y-44270000D02*
X143330000Y-44270000D01*
X140730000Y-41670000D02*
X140730000Y-44270000D01*
X143330000Y-46870000D02*
X135590000Y-46870000D01*
X140730000Y-41670000D02*
X135590000Y-41670000D01*
X135590000Y-41670000D02*
X135590000Y-46870000D01*
X131330000Y-41670000D02*
X131330000Y-43000000D01*
X130000000Y-41670000D02*
X131330000Y-41670000D01*
X131330000Y-44270000D02*
X131330000Y-46870000D01*
X128730000Y-44270000D02*
X131330000Y-44270000D01*
X128730000Y-41670000D02*
X128730000Y-44270000D01*
X131330000Y-46870000D02*
X123590000Y-46870000D01*
X128730000Y-41670000D02*
X123590000Y-41670000D01*
X123590000Y-41670000D02*
X123590000Y-46870000D01*
X171364800Y-97140800D02*
X172694800Y-97140800D01*
X171364800Y-98470800D02*
X171364800Y-97140800D01*
X171364800Y-99740800D02*
X174024800Y-99740800D01*
X174024800Y-99740800D02*
X174024800Y-122660800D01*
X171364800Y-99740800D02*
X171364800Y-122660800D01*
X171364800Y-122660800D02*
X174024800Y-122660800D01*
X161534800Y-110023600D02*
X162864800Y-110023600D01*
X161534800Y-111353600D02*
X161534800Y-110023600D01*
X161534800Y-112623600D02*
X164194800Y-112623600D01*
X164194800Y-112623600D02*
X164194800Y-115223600D01*
X161534800Y-112623600D02*
X161534800Y-115223600D01*
X161534800Y-115223600D02*
X164194800Y-115223600D01*
X158473000Y-137247600D02*
X158473000Y-144257600D01*
X158473000Y-144257600D02*
X168293000Y-144257600D01*
X168293000Y-144257600D02*
X168293000Y-139057600D01*
X168293000Y-139057600D02*
X169693000Y-139057600D01*
X169693000Y-139057600D02*
X169693000Y-137247600D01*
X158473000Y-137247600D02*
X158473000Y-130237600D01*
X158473000Y-130237600D02*
X168293000Y-130237600D01*
X168293000Y-130237600D02*
X168293000Y-135437600D01*
X168293000Y-135437600D02*
X169693000Y-135437600D01*
X169693000Y-135437600D02*
X169693000Y-137247600D01*
X158233000Y-141647600D02*
X158233000Y-144497600D01*
X158233000Y-144497600D02*
X161083000Y-144497600D01*
D10*
X95809000Y-52192000D02*
G75*
G02X98349000Y-49652000I2540000J0D01*
G01*
X98349000Y-72512000D02*
G75*
G02X95809000Y-69972000I0J2540000D01*
G01*
X144069000Y-49652000D02*
G75*
G02X146609000Y-52192000I0J-2540000D01*
G01*
X146609000Y-69972000D02*
G75*
G02X144069000Y-72512000I-2540000J0D01*
G01*
X95809000Y-52192000D02*
X95809000Y-69972000D01*
X144069000Y-49652000D02*
X98349000Y-49652000D01*
X146609000Y-69972000D02*
X146609000Y-52192000D01*
X144069000Y-72512000D02*
X98349000Y-72512000D01*
D13*
X154340000Y-85428000D02*
X154340000Y-94572000D01*
X174660000Y-85428000D02*
X165770000Y-85428000D01*
X174660000Y-94572000D02*
X154340000Y-94572000D01*
X174660000Y-85428000D02*
X174660000Y-94572000D01*
X163230000Y-85428000D02*
X154340000Y-85428000D01*
X163230000Y-75428000D02*
X154340000Y-75428000D01*
X174660000Y-75428000D02*
X174660000Y-84572000D01*
X174660000Y-84572000D02*
X154340000Y-84572000D01*
X174660000Y-75428000D02*
X165770000Y-75428000D01*
X154340000Y-75428000D02*
X154340000Y-84572000D01*
X119957148Y-89582000D02*
X120479652Y-89582000D01*
X119957148Y-91002000D02*
X120479652Y-91002000D01*
X131646400Y-93765267D02*
X131646400Y-93422733D01*
X132666400Y-93765267D02*
X132666400Y-93422733D01*
X151085733Y-98223800D02*
X151428267Y-98223800D01*
X151085733Y-97203800D02*
X151428267Y-97203800D01*
X128242800Y-97588333D02*
X128242800Y-97930867D01*
X129262800Y-97588333D02*
X129262800Y-97930867D01*
X141725667Y-92884800D02*
X141383133Y-92884800D01*
X141725667Y-91864800D02*
X141383133Y-91864800D01*
X150624000Y-94760867D02*
X150624000Y-94418333D01*
X149604000Y-94760867D02*
X149604000Y-94418333D01*
X151365133Y-108010000D02*
X151707667Y-108010000D01*
X151365133Y-106990000D02*
X151707667Y-106990000D01*
X139393200Y-115170133D02*
X139393200Y-115512667D01*
X140413200Y-115170133D02*
X140413200Y-115512667D01*
X126231667Y-93084000D02*
X125889133Y-93084000D01*
X126231667Y-94104000D02*
X125889133Y-94104000D01*
X148386066Y-55026199D02*
X148043532Y-55026199D01*
X148386066Y-54006199D02*
X148043532Y-54006199D01*
X148380267Y-55674800D02*
X148037733Y-55674800D01*
X148380267Y-56694800D02*
X148037733Y-56694800D01*
X152952467Y-58235200D02*
X152609933Y-58235200D01*
X152952467Y-59255200D02*
X152609933Y-59255200D01*
X112921000Y-131991600D02*
X114181000Y-131991600D01*
X119741000Y-131991600D02*
X118481000Y-131991600D01*
X112921000Y-128231600D02*
X112921000Y-131991600D01*
X119741000Y-125981600D02*
X119741000Y-131991600D01*
X122921000Y-131991600D02*
X124181000Y-131991600D01*
X129741000Y-131991600D02*
X128481000Y-131991600D01*
X122921000Y-128231600D02*
X122921000Y-131991600D01*
X129741000Y-125981600D02*
X129741000Y-131991600D01*
X139741000Y-125981600D02*
X139741000Y-131991600D01*
X132921000Y-128231600D02*
X132921000Y-131991600D01*
X139741000Y-131991600D02*
X138481000Y-131991600D01*
X132921000Y-131991600D02*
X134181000Y-131991600D01*
X142921000Y-131991600D02*
X144181000Y-131991600D01*
X149741000Y-131991600D02*
X148481000Y-131991600D01*
X142921000Y-128231600D02*
X142921000Y-131991600D01*
X149741000Y-125981600D02*
X149741000Y-131991600D01*
D10*
X117366000Y-78298600D02*
X117366000Y-92988600D01*
X117366000Y-92988600D02*
X112606000Y-92988600D01*
X112606000Y-78298600D02*
X112606000Y-92988600D01*
X112606000Y-78298600D02*
X117366000Y-78298600D01*
D13*
X108149000Y-82900600D02*
G75*
G03X108149000Y-82900600I-2180000J0D01*
G01*
X108149000Y-87900600D02*
G75*
G03X108149000Y-87900600I-2180000J0D01*
G01*
X101369000Y-80340600D02*
X101369000Y-90460600D01*
X102469000Y-80340600D02*
X102469000Y-90460600D01*
X110029000Y-80340600D02*
X110029000Y-90460600D01*
X100909000Y-80340600D02*
X100909000Y-90460600D01*
X110029000Y-80340600D02*
X100909000Y-80340600D01*
X110029000Y-90460600D02*
X100909000Y-90460600D01*
X107357000Y-84554600D02*
X107250000Y-84447600D01*
X104422000Y-81618600D02*
X104315000Y-81512600D01*
X107623000Y-84288600D02*
X107516000Y-84181600D01*
X104688000Y-81352600D02*
X104581000Y-81246600D01*
X107357000Y-89554600D02*
X106961000Y-89159600D01*
X104695000Y-86893600D02*
X104315000Y-86513600D01*
X107623000Y-89288600D02*
X107243000Y-88908600D01*
X104977000Y-86642600D02*
X104581000Y-86247600D01*
X101309000Y-80100600D02*
X100669000Y-80100600D01*
X100669000Y-80100600D02*
X100669000Y-80500600D01*
D10*
X163322600Y-53394000D02*
X161772600Y-53394000D01*
X163322600Y-72834000D02*
X163322600Y-53394000D01*
X163322600Y-72834000D02*
X161772600Y-72834000D01*
X158322600Y-72834000D02*
X158322600Y-70734000D01*
X158322600Y-55494000D02*
X158322600Y-53394000D01*
X157822600Y-55194000D02*
G75*
G03X157822600Y-55194000I-100000J0D01*
G01*
D13*
X100288000Y-94197600D02*
X100288000Y-94597600D01*
X100928000Y-94197600D02*
X100288000Y-94197600D01*
X104596000Y-130739600D02*
X104200000Y-130344600D01*
X107242000Y-133385600D02*
X106862000Y-133005600D01*
X104314000Y-130990600D02*
X103934000Y-130610600D01*
X106976000Y-133651600D02*
X106580000Y-133256600D01*
X104596000Y-125739600D02*
X104200000Y-125344600D01*
X107242000Y-128385600D02*
X106862000Y-128005600D01*
X104314000Y-125990600D02*
X103934000Y-125610600D01*
X106976000Y-128651600D02*
X106580000Y-128256600D01*
X104596000Y-120739600D02*
X104200000Y-120344600D01*
X107242000Y-123385600D02*
X106862000Y-123005600D01*
X104314000Y-120990600D02*
X103934000Y-120610600D01*
X106976000Y-123651600D02*
X106580000Y-123256600D01*
X104596000Y-115739600D02*
X104200000Y-115344600D01*
X107242000Y-118385600D02*
X106862000Y-118005600D01*
X104314000Y-115990600D02*
X103934000Y-115610600D01*
X106976000Y-118651600D02*
X106580000Y-118256600D01*
X104596000Y-110739600D02*
X104200000Y-110344600D01*
X107242000Y-113385600D02*
X106862000Y-113005600D01*
X104314000Y-110990600D02*
X103934000Y-110610600D01*
X106976000Y-113651600D02*
X106580000Y-113256600D01*
X104596000Y-105739600D02*
X104200000Y-105344600D01*
X107242000Y-108385600D02*
X106862000Y-108005600D01*
X104314000Y-105990600D02*
X103934000Y-105610600D01*
X106976000Y-108651600D02*
X106580000Y-108256600D01*
X104596000Y-100739600D02*
X104200000Y-100344600D01*
X107242000Y-103385600D02*
X106862000Y-103005600D01*
X104314000Y-100990600D02*
X103934000Y-100610600D01*
X106976000Y-103651600D02*
X106580000Y-103256600D01*
X104307000Y-95449600D02*
X104200000Y-95343600D01*
X107242000Y-98385600D02*
X107135000Y-98278600D01*
X104041000Y-95715600D02*
X103934000Y-95609600D01*
X106976000Y-98651600D02*
X106869000Y-98544600D01*
X109648000Y-134557600D02*
X100528000Y-134557600D01*
X109648000Y-94437600D02*
X100528000Y-94437600D01*
X100528000Y-94437600D02*
X100528000Y-134557600D01*
X109648000Y-94437600D02*
X109648000Y-134557600D01*
X102088000Y-94437600D02*
X102088000Y-134557600D01*
X100988000Y-94437600D02*
X100988000Y-134557600D01*
X107768000Y-131997600D02*
G75*
G03X107768000Y-131997600I-2180000J0D01*
G01*
X107768000Y-126997600D02*
G75*
G03X107768000Y-126997600I-2180000J0D01*
G01*
X107768000Y-121997600D02*
G75*
G03X107768000Y-121997600I-2180000J0D01*
G01*
X107768000Y-116997600D02*
G75*
G03X107768000Y-116997600I-2180000J0D01*
G01*
X107768000Y-111997600D02*
G75*
G03X107768000Y-111997600I-2180000J0D01*
G01*
X107768000Y-106997600D02*
G75*
G03X107768000Y-106997600I-2180000J0D01*
G01*
X107768000Y-101997600D02*
G75*
G03X107768000Y-101997600I-2180000J0D01*
G01*
X107768000Y-96997600D02*
G75*
G03X107768000Y-96997600I-2180000J0D01*
G01*
X118511000Y-140259600D02*
G75*
G03X118511000Y-140259600I-2180000J0D01*
G01*
X123511000Y-140259600D02*
G75*
G03X123511000Y-140259600I-2180000J0D01*
G01*
X128511000Y-140259600D02*
G75*
G03X128511000Y-140259600I-2180000J0D01*
G01*
X133511000Y-140259600D02*
G75*
G03X133511000Y-140259600I-2180000J0D01*
G01*
X138511000Y-140259600D02*
G75*
G03X138511000Y-140259600I-2180000J0D01*
G01*
X143511000Y-140259600D02*
G75*
G03X143511000Y-140259600I-2180000J0D01*
G01*
X148511000Y-140259600D02*
G75*
G03X148511000Y-140259600I-2180000J0D01*
G01*
X153511000Y-140259600D02*
G75*
G03X153511000Y-140259600I-2180000J0D01*
G01*
X113771000Y-144859600D02*
X153891000Y-144859600D01*
X113771000Y-143759600D02*
X153891000Y-143759600D01*
X113771000Y-136199600D02*
X153891000Y-136199600D01*
X113771000Y-145319600D02*
X153891000Y-145319600D01*
X113771000Y-136199600D02*
X113771000Y-145319600D01*
X153891000Y-136199600D02*
X153891000Y-145319600D01*
X117985000Y-138871600D02*
X117878000Y-138978600D01*
X115049000Y-141806600D02*
X114943000Y-141913600D01*
X117719000Y-138605600D02*
X117612000Y-138712600D01*
X114783000Y-141540600D02*
X114677000Y-141647600D01*
X122985000Y-138871600D02*
X122590000Y-139267600D01*
X120324000Y-141533600D02*
X119944000Y-141913600D01*
X122719000Y-138605600D02*
X122339000Y-138985600D01*
X120073000Y-141251600D02*
X119678000Y-141647600D01*
X127985000Y-138871600D02*
X127590000Y-139267600D01*
X125324000Y-141533600D02*
X124944000Y-141913600D01*
X127719000Y-138605600D02*
X127339000Y-138985600D01*
X125073000Y-141251600D02*
X124678000Y-141647600D01*
X132985000Y-138871600D02*
X132590000Y-139267600D01*
X130324000Y-141533600D02*
X129944000Y-141913600D01*
X132719000Y-138605600D02*
X132339000Y-138985600D01*
X130073000Y-141251600D02*
X129678000Y-141647600D01*
X137985000Y-138871600D02*
X137590000Y-139267600D01*
X135324000Y-141533600D02*
X134944000Y-141913600D01*
X137719000Y-138605600D02*
X137339000Y-138985600D01*
X135073000Y-141251600D02*
X134678000Y-141647600D01*
X142985000Y-138871600D02*
X142590000Y-139267600D01*
X140324000Y-141533600D02*
X139944000Y-141913600D01*
X142719000Y-138605600D02*
X142339000Y-138985600D01*
X140073000Y-141251600D02*
X139678000Y-141647600D01*
X147985000Y-138871600D02*
X147590000Y-139267600D01*
X145324000Y-141533600D02*
X144944000Y-141913600D01*
X147719000Y-138605600D02*
X147339000Y-138985600D01*
X145073000Y-141251600D02*
X144678000Y-141647600D01*
X152985000Y-138871600D02*
X152590000Y-139267600D01*
X150324000Y-141533600D02*
X149944000Y-141913600D01*
X152719000Y-138605600D02*
X152339000Y-138985600D01*
X150073000Y-141251600D02*
X149678000Y-141647600D01*
X113531000Y-144919600D02*
X113531000Y-145559600D01*
X113531000Y-145559600D02*
X113931000Y-145559600D01*
X160805400Y-129367400D02*
X160805400Y-128437400D01*
X160805400Y-126207400D02*
X160805400Y-127137400D01*
X160805400Y-126207400D02*
X158145400Y-126207400D01*
X160805400Y-129367400D02*
X159345400Y-129367400D01*
X165010000Y-124171267D02*
X165010000Y-123828733D01*
X163990000Y-124171267D02*
X163990000Y-123828733D01*
X116502267Y-121571600D02*
X116159733Y-121571600D01*
X116502267Y-122591600D02*
X116159733Y-122591600D01*
X157706600Y-111944333D02*
X157706600Y-112286867D01*
X158726600Y-111944333D02*
X158726600Y-112286867D01*
X159990000Y-124171267D02*
X159990000Y-123828733D01*
X161010000Y-124171267D02*
X161010000Y-123828733D01*
X157990000Y-124171267D02*
X157990000Y-123828733D01*
X159010000Y-124171267D02*
X159010000Y-123828733D01*
X127633200Y-101537667D02*
X127633200Y-101195133D01*
X128653200Y-101537667D02*
X128653200Y-101195133D01*
X126502267Y-122591600D02*
X126159733Y-122591600D01*
X126502267Y-121571600D02*
X126159733Y-121571600D01*
X136502267Y-122591600D02*
X136159733Y-122591600D01*
X136502267Y-121571600D02*
X136159733Y-121571600D01*
X161990000Y-124171267D02*
X161990000Y-123828733D01*
X163010000Y-124171267D02*
X163010000Y-123828733D01*
X146502267Y-121571600D02*
X146159733Y-121571600D01*
X146502267Y-122591600D02*
X146159733Y-122591600D01*
X131040800Y-110986467D02*
X131040800Y-110643933D01*
X130020800Y-110986467D02*
X130020800Y-110643933D01*
X110859200Y-42863600D02*
X116979200Y-42863600D01*
X116979200Y-42863600D02*
X116979200Y-46483600D01*
X116979200Y-46483600D02*
X110859200Y-46483600D01*
X110859200Y-46483600D02*
X110859200Y-42863600D01*
X127847600Y-88370800D02*
X127847600Y-85710800D01*
X122707600Y-88370800D02*
X127847600Y-88370800D01*
X122707600Y-85710800D02*
X127847600Y-85710800D01*
X122707600Y-88370800D02*
X122707600Y-85710800D01*
X121437600Y-88370800D02*
X120107600Y-88370800D01*
X120107600Y-88370800D02*
X120107600Y-87040800D01*
X174574400Y-53360400D02*
X165430400Y-53360400D01*
X174574400Y-73680400D02*
X174574400Y-64790400D01*
X165430400Y-73680400D02*
X165430400Y-53360400D01*
X174574400Y-73680400D02*
X165430400Y-73680400D01*
X174574400Y-62250400D02*
X174574400Y-53360400D01*
D10*
X149188380Y-104109504D02*
X149997904Y-104109504D01*
X150093142Y-104061885D01*
X150140761Y-104014266D01*
X150188380Y-103919028D01*
X150188380Y-103728552D01*
X150140761Y-103633314D01*
X150093142Y-103585695D01*
X149997904Y-103538076D01*
X149188380Y-103538076D01*
X149188380Y-103157123D02*
X149188380Y-102538076D01*
X149569333Y-102871409D01*
X149569333Y-102728552D01*
X149616952Y-102633314D01*
X149664571Y-102585695D01*
X149759809Y-102538076D01*
X149997904Y-102538076D01*
X150093142Y-102585695D01*
X150140761Y-102633314D01*
X150188380Y-102728552D01*
X150188380Y-103014266D01*
X150140761Y-103109504D01*
X150093142Y-103157123D01*
X122150190Y-100552190D02*
X122626380Y-100552190D01*
X121626380Y-100885523D02*
X122150190Y-100552190D01*
X121626380Y-100218857D01*
X122626380Y-99361714D02*
X122626380Y-99933142D01*
X122626380Y-99647428D02*
X121626380Y-99647428D01*
X121769238Y-99742666D01*
X121864476Y-99837904D01*
X121912095Y-99933142D01*
X143782380Y-45079523D02*
X144496666Y-45079523D01*
X144639523Y-45127142D01*
X144734761Y-45222380D01*
X144782380Y-45365238D01*
X144782380Y-45460476D01*
X144782380Y-44079523D02*
X144782380Y-44650952D01*
X144782380Y-44365238D02*
X143782380Y-44365238D01*
X143925238Y-44460476D01*
X144020476Y-44555714D01*
X144068095Y-44650952D01*
X143782380Y-43746190D02*
X143782380Y-43127142D01*
X144163333Y-43460476D01*
X144163333Y-43317619D01*
X144210952Y-43222380D01*
X144258571Y-43174761D01*
X144353809Y-43127142D01*
X144591904Y-43127142D01*
X144687142Y-43174761D01*
X144734761Y-43222380D01*
X144782380Y-43317619D01*
X144782380Y-43603333D01*
X144734761Y-43698571D01*
X144687142Y-43746190D01*
X131782380Y-44603333D02*
X132496666Y-44603333D01*
X132639523Y-44650952D01*
X132734761Y-44746190D01*
X132782380Y-44889047D01*
X132782380Y-44984285D01*
X132782380Y-44079523D02*
X132782380Y-43889047D01*
X132734761Y-43793809D01*
X132687142Y-43746190D01*
X132544285Y-43650952D01*
X132353809Y-43603333D01*
X131972857Y-43603333D01*
X131877619Y-43650952D01*
X131830000Y-43698571D01*
X131782380Y-43793809D01*
X131782380Y-43984285D01*
X131830000Y-44079523D01*
X131877619Y-44127142D01*
X131972857Y-44174761D01*
X132210952Y-44174761D01*
X132306190Y-44127142D01*
X132353809Y-44079523D01*
X132401428Y-43984285D01*
X132401428Y-43793809D01*
X132353809Y-43698571D01*
X132306190Y-43650952D01*
X132210952Y-43603333D01*
X172361466Y-95593180D02*
X172361466Y-96307466D01*
X172313847Y-96450323D01*
X172218609Y-96545561D01*
X172075752Y-96593180D01*
X171980514Y-96593180D01*
X173361466Y-96593180D02*
X172790038Y-96593180D01*
X173075752Y-96593180D02*
X173075752Y-95593180D01*
X172980514Y-95736038D01*
X172885276Y-95831276D01*
X172790038Y-95878895D01*
X162531466Y-108475980D02*
X162531466Y-109190266D01*
X162483847Y-109333123D01*
X162388609Y-109428361D01*
X162245752Y-109475980D01*
X162150514Y-109475980D01*
X163436228Y-108475980D02*
X163245752Y-108475980D01*
X163150514Y-108523600D01*
X163102895Y-108571219D01*
X163007657Y-108714076D01*
X162960038Y-108904552D01*
X162960038Y-109285504D01*
X163007657Y-109380742D01*
X163055276Y-109428361D01*
X163150514Y-109475980D01*
X163340990Y-109475980D01*
X163436228Y-109428361D01*
X163483847Y-109380742D01*
X163531466Y-109285504D01*
X163531466Y-109047409D01*
X163483847Y-108952171D01*
X163436228Y-108904552D01*
X163340990Y-108856933D01*
X163150514Y-108856933D01*
X163055276Y-108904552D01*
X163007657Y-108952171D01*
X162960038Y-109047409D01*
X156835380Y-137580933D02*
X157549666Y-137580933D01*
X157692523Y-137628552D01*
X157787761Y-137723790D01*
X157835380Y-137866647D01*
X157835380Y-137961885D01*
X156835380Y-136628552D02*
X156835380Y-137104742D01*
X157311571Y-137152361D01*
X157263952Y-137104742D01*
X157216333Y-137009504D01*
X157216333Y-136771409D01*
X157263952Y-136676171D01*
X157311571Y-136628552D01*
X157406809Y-136580933D01*
X157644904Y-136580933D01*
X157740142Y-136628552D01*
X157787761Y-136676171D01*
X157835380Y-136771409D01*
X157835380Y-137009504D01*
X157787761Y-137104742D01*
X157740142Y-137152361D01*
X93991380Y-70733904D02*
X94800904Y-70733904D01*
X94896142Y-70686285D01*
X94943761Y-70638666D01*
X94991380Y-70543428D01*
X94991380Y-70352952D01*
X94943761Y-70257714D01*
X94896142Y-70210095D01*
X94800904Y-70162476D01*
X93991380Y-70162476D01*
X93991380Y-69210095D02*
X93991380Y-69686285D01*
X94467571Y-69733904D01*
X94419952Y-69686285D01*
X94372333Y-69591047D01*
X94372333Y-69352952D01*
X94419952Y-69257714D01*
X94467571Y-69210095D01*
X94562809Y-69162476D01*
X94800904Y-69162476D01*
X94896142Y-69210095D01*
X94943761Y-69257714D01*
X94991380Y-69352952D01*
X94991380Y-69591047D01*
X94943761Y-69686285D01*
X94896142Y-69733904D01*
X166282380Y-91603333D02*
X166996666Y-91603333D01*
X167139523Y-91650952D01*
X167234761Y-91746190D01*
X167282380Y-91889047D01*
X167282380Y-91984285D01*
X166282380Y-91222380D02*
X166282380Y-90555714D01*
X167282380Y-90984285D01*
X166282380Y-81603333D02*
X166996666Y-81603333D01*
X167139523Y-81650952D01*
X167234761Y-81746190D01*
X167282380Y-81889047D01*
X167282380Y-81984285D01*
X166710952Y-80984285D02*
X166663333Y-81079523D01*
X166615714Y-81127142D01*
X166520476Y-81174761D01*
X166472857Y-81174761D01*
X166377619Y-81127142D01*
X166330000Y-81079523D01*
X166282380Y-80984285D01*
X166282380Y-80793809D01*
X166330000Y-80698571D01*
X166377619Y-80650952D01*
X166472857Y-80603333D01*
X166520476Y-80603333D01*
X166615714Y-80650952D01*
X166663333Y-80698571D01*
X166710952Y-80793809D01*
X166710952Y-80984285D01*
X166758571Y-81079523D01*
X166806190Y-81127142D01*
X166901428Y-81174761D01*
X167091904Y-81174761D01*
X167187142Y-81127142D01*
X167234761Y-81079523D01*
X167282380Y-80984285D01*
X167282380Y-80793809D01*
X167234761Y-80698571D01*
X167187142Y-80650952D01*
X167091904Y-80603333D01*
X166901428Y-80603333D01*
X166806190Y-80650952D01*
X166758571Y-80698571D01*
X166710952Y-80793809D01*
X119188133Y-92528742D02*
X119140514Y-92576361D01*
X118997657Y-92623980D01*
X118902419Y-92623980D01*
X118759561Y-92576361D01*
X118664323Y-92481123D01*
X118616704Y-92385885D01*
X118569085Y-92195409D01*
X118569085Y-92052552D01*
X118616704Y-91862076D01*
X118664323Y-91766838D01*
X118759561Y-91671600D01*
X118902419Y-91623980D01*
X118997657Y-91623980D01*
X119140514Y-91671600D01*
X119188133Y-91719219D01*
X120140514Y-92623980D02*
X119569085Y-92623980D01*
X119854800Y-92623980D02*
X119854800Y-91623980D01*
X119759561Y-91766838D01*
X119664323Y-91862076D01*
X119569085Y-91909695D01*
X132564342Y-90915866D02*
X132611961Y-90963485D01*
X132659580Y-91106342D01*
X132659580Y-91201580D01*
X132611961Y-91344438D01*
X132516723Y-91439676D01*
X132421485Y-91487295D01*
X132231009Y-91534914D01*
X132088152Y-91534914D01*
X131897676Y-91487295D01*
X131802438Y-91439676D01*
X131707200Y-91344438D01*
X131659580Y-91201580D01*
X131659580Y-91106342D01*
X131707200Y-90963485D01*
X131754819Y-90915866D01*
X131659580Y-90011104D02*
X131659580Y-90487295D01*
X132135771Y-90534914D01*
X132088152Y-90487295D01*
X132040533Y-90392057D01*
X132040533Y-90153961D01*
X132088152Y-90058723D01*
X132135771Y-90011104D01*
X132231009Y-89963485D01*
X132469104Y-89963485D01*
X132564342Y-90011104D01*
X132611961Y-90058723D01*
X132659580Y-90153961D01*
X132659580Y-90392057D01*
X132611961Y-90487295D01*
X132564342Y-90534914D01*
X150614142Y-99594942D02*
X150566523Y-99642561D01*
X150423666Y-99690180D01*
X150328428Y-99690180D01*
X150185571Y-99642561D01*
X150090333Y-99547323D01*
X150042714Y-99452085D01*
X149995095Y-99261609D01*
X149995095Y-99118752D01*
X150042714Y-98928276D01*
X150090333Y-98833038D01*
X150185571Y-98737800D01*
X150328428Y-98690180D01*
X150423666Y-98690180D01*
X150566523Y-98737800D01*
X150614142Y-98785419D01*
X151566523Y-99690180D02*
X150995095Y-99690180D01*
X151280809Y-99690180D02*
X151280809Y-98690180D01*
X151185571Y-98833038D01*
X151090333Y-98928276D01*
X150995095Y-98975895D01*
X152185571Y-98690180D02*
X152280809Y-98690180D01*
X152376047Y-98737800D01*
X152423666Y-98785419D01*
X152471285Y-98880657D01*
X152518904Y-99071133D01*
X152518904Y-99309228D01*
X152471285Y-99499704D01*
X152423666Y-99594942D01*
X152376047Y-99642561D01*
X152280809Y-99690180D01*
X152185571Y-99690180D01*
X152090333Y-99642561D01*
X152042714Y-99594942D01*
X151995095Y-99499704D01*
X151947476Y-99309228D01*
X151947476Y-99071133D01*
X151995095Y-98880657D01*
X152042714Y-98785419D01*
X152090333Y-98737800D01*
X152185571Y-98690180D01*
X130539942Y-98402457D02*
X130587561Y-98450076D01*
X130635180Y-98592933D01*
X130635180Y-98688171D01*
X130587561Y-98831028D01*
X130492323Y-98926266D01*
X130397085Y-98973885D01*
X130206609Y-99021504D01*
X130063752Y-99021504D01*
X129873276Y-98973885D01*
X129778038Y-98926266D01*
X129682800Y-98831028D01*
X129635180Y-98688171D01*
X129635180Y-98592933D01*
X129682800Y-98450076D01*
X129730419Y-98402457D01*
X130635180Y-97450076D02*
X130635180Y-98021504D01*
X130635180Y-97735790D02*
X129635180Y-97735790D01*
X129778038Y-97831028D01*
X129873276Y-97926266D01*
X129920895Y-98021504D01*
X130635180Y-96497695D02*
X130635180Y-97069123D01*
X130635180Y-96783409D02*
X129635180Y-96783409D01*
X129778038Y-96878647D01*
X129873276Y-96973885D01*
X129920895Y-97069123D01*
X140911542Y-94161942D02*
X140863923Y-94209561D01*
X140721066Y-94257180D01*
X140625828Y-94257180D01*
X140482971Y-94209561D01*
X140387733Y-94114323D01*
X140340114Y-94019085D01*
X140292495Y-93828609D01*
X140292495Y-93685752D01*
X140340114Y-93495276D01*
X140387733Y-93400038D01*
X140482971Y-93304800D01*
X140625828Y-93257180D01*
X140721066Y-93257180D01*
X140863923Y-93304800D01*
X140911542Y-93352419D01*
X141863923Y-94257180D02*
X141292495Y-94257180D01*
X141578209Y-94257180D02*
X141578209Y-93257180D01*
X141482971Y-93400038D01*
X141387733Y-93495276D01*
X141292495Y-93542895D01*
X142244876Y-93352419D02*
X142292495Y-93304800D01*
X142387733Y-93257180D01*
X142625828Y-93257180D01*
X142721066Y-93304800D01*
X142768685Y-93352419D01*
X142816304Y-93447657D01*
X142816304Y-93542895D01*
X142768685Y-93685752D01*
X142197257Y-94257180D01*
X142816304Y-94257180D01*
X149041142Y-95232457D02*
X149088761Y-95280076D01*
X149136380Y-95422933D01*
X149136380Y-95518171D01*
X149088761Y-95661028D01*
X148993523Y-95756266D01*
X148898285Y-95803885D01*
X148707809Y-95851504D01*
X148564952Y-95851504D01*
X148374476Y-95803885D01*
X148279238Y-95756266D01*
X148184000Y-95661028D01*
X148136380Y-95518171D01*
X148136380Y-95422933D01*
X148184000Y-95280076D01*
X148231619Y-95232457D01*
X149136380Y-94280076D02*
X149136380Y-94851504D01*
X149136380Y-94565790D02*
X148136380Y-94565790D01*
X148279238Y-94661028D01*
X148374476Y-94756266D01*
X148422095Y-94851504D01*
X148136380Y-93946742D02*
X148136380Y-93327695D01*
X148517333Y-93661028D01*
X148517333Y-93518171D01*
X148564952Y-93422933D01*
X148612571Y-93375314D01*
X148707809Y-93327695D01*
X148945904Y-93327695D01*
X149041142Y-93375314D01*
X149088761Y-93422933D01*
X149136380Y-93518171D01*
X149136380Y-93803885D01*
X149088761Y-93899123D01*
X149041142Y-93946742D01*
X154093942Y-107857142D02*
X154046323Y-107904761D01*
X153903466Y-107952380D01*
X153808228Y-107952380D01*
X153665371Y-107904761D01*
X153570133Y-107809523D01*
X153522514Y-107714285D01*
X153474895Y-107523809D01*
X153474895Y-107380952D01*
X153522514Y-107190476D01*
X153570133Y-107095238D01*
X153665371Y-107000000D01*
X153808228Y-106952380D01*
X153903466Y-106952380D01*
X154046323Y-107000000D01*
X154093942Y-107047619D01*
X155046323Y-107952380D02*
X154474895Y-107952380D01*
X154760609Y-107952380D02*
X154760609Y-106952380D01*
X154665371Y-107095238D01*
X154570133Y-107190476D01*
X154474895Y-107238095D01*
X155903466Y-107285714D02*
X155903466Y-107952380D01*
X155665371Y-106904761D02*
X155427276Y-107619047D01*
X156046323Y-107619047D01*
X138787142Y-115984257D02*
X138834761Y-116031876D01*
X138882380Y-116174733D01*
X138882380Y-116269971D01*
X138834761Y-116412828D01*
X138739523Y-116508066D01*
X138644285Y-116555685D01*
X138453809Y-116603304D01*
X138310952Y-116603304D01*
X138120476Y-116555685D01*
X138025238Y-116508066D01*
X137930000Y-116412828D01*
X137882380Y-116269971D01*
X137882380Y-116174733D01*
X137930000Y-116031876D01*
X137977619Y-115984257D01*
X138882380Y-115031876D02*
X138882380Y-115603304D01*
X138882380Y-115317590D02*
X137882380Y-115317590D01*
X138025238Y-115412828D01*
X138120476Y-115508066D01*
X138168095Y-115603304D01*
X137882380Y-114127114D02*
X137882380Y-114603304D01*
X138358571Y-114650923D01*
X138310952Y-114603304D01*
X138263333Y-114508066D01*
X138263333Y-114269971D01*
X138310952Y-114174733D01*
X138358571Y-114127114D01*
X138453809Y-114079495D01*
X138691904Y-114079495D01*
X138787142Y-114127114D01*
X138834761Y-114174733D01*
X138882380Y-114269971D01*
X138882380Y-114508066D01*
X138834761Y-114603304D01*
X138787142Y-114650923D01*
X128668742Y-93951142D02*
X128621123Y-93998761D01*
X128478266Y-94046380D01*
X128383028Y-94046380D01*
X128240171Y-93998761D01*
X128144933Y-93903523D01*
X128097314Y-93808285D01*
X128049695Y-93617809D01*
X128049695Y-93474952D01*
X128097314Y-93284476D01*
X128144933Y-93189238D01*
X128240171Y-93094000D01*
X128383028Y-93046380D01*
X128478266Y-93046380D01*
X128621123Y-93094000D01*
X128668742Y-93141619D01*
X129621123Y-94046380D02*
X129049695Y-94046380D01*
X129335409Y-94046380D02*
X129335409Y-93046380D01*
X129240171Y-93189238D01*
X129144933Y-93284476D01*
X129049695Y-93332095D01*
X130478266Y-93046380D02*
X130287790Y-93046380D01*
X130192552Y-93094000D01*
X130144933Y-93141619D01*
X130049695Y-93284476D01*
X130002076Y-93474952D01*
X130002076Y-93855904D01*
X130049695Y-93951142D01*
X130097314Y-93998761D01*
X130192552Y-94046380D01*
X130383028Y-94046380D01*
X130478266Y-93998761D01*
X130525885Y-93951142D01*
X130573504Y-93855904D01*
X130573504Y-93617809D01*
X130525885Y-93522571D01*
X130478266Y-93474952D01*
X130383028Y-93427333D01*
X130192552Y-93427333D01*
X130097314Y-93474952D01*
X130049695Y-93522571D01*
X130002076Y-93617809D01*
X144867333Y-54154342D02*
X144819714Y-54201961D01*
X144676857Y-54249580D01*
X144581619Y-54249580D01*
X144438761Y-54201961D01*
X144343523Y-54106723D01*
X144295904Y-54011485D01*
X144248285Y-53821009D01*
X144248285Y-53678152D01*
X144295904Y-53487676D01*
X144343523Y-53392438D01*
X144438761Y-53297200D01*
X144581619Y-53249580D01*
X144676857Y-53249580D01*
X144819714Y-53297200D01*
X144867333Y-53344819D01*
X145343523Y-54249580D02*
X145534000Y-54249580D01*
X145629238Y-54201961D01*
X145676857Y-54154342D01*
X145772095Y-54011485D01*
X145819714Y-53821009D01*
X145819714Y-53440057D01*
X145772095Y-53344819D01*
X145724476Y-53297200D01*
X145629238Y-53249580D01*
X145438761Y-53249580D01*
X145343523Y-53297200D01*
X145295904Y-53344819D01*
X145248285Y-53440057D01*
X145248285Y-53678152D01*
X145295904Y-53773390D01*
X145343523Y-53821009D01*
X145438761Y-53868628D01*
X145629238Y-53868628D01*
X145724476Y-53821009D01*
X145772095Y-53773390D01*
X145819714Y-53678152D01*
X147566142Y-57971942D02*
X147518523Y-58019561D01*
X147375666Y-58067180D01*
X147280428Y-58067180D01*
X147137571Y-58019561D01*
X147042333Y-57924323D01*
X146994714Y-57829085D01*
X146947095Y-57638609D01*
X146947095Y-57495752D01*
X146994714Y-57305276D01*
X147042333Y-57210038D01*
X147137571Y-57114800D01*
X147280428Y-57067180D01*
X147375666Y-57067180D01*
X147518523Y-57114800D01*
X147566142Y-57162419D01*
X148518523Y-58067180D02*
X147947095Y-58067180D01*
X148232809Y-58067180D02*
X148232809Y-57067180D01*
X148137571Y-57210038D01*
X148042333Y-57305276D01*
X147947095Y-57352895D01*
X149089952Y-57495752D02*
X148994714Y-57448133D01*
X148947095Y-57400514D01*
X148899476Y-57305276D01*
X148899476Y-57257657D01*
X148947095Y-57162419D01*
X148994714Y-57114800D01*
X149089952Y-57067180D01*
X149280428Y-57067180D01*
X149375666Y-57114800D01*
X149423285Y-57162419D01*
X149470904Y-57257657D01*
X149470904Y-57305276D01*
X149423285Y-57400514D01*
X149375666Y-57448133D01*
X149280428Y-57495752D01*
X149089952Y-57495752D01*
X148994714Y-57543371D01*
X148947095Y-57590990D01*
X148899476Y-57686228D01*
X148899476Y-57876704D01*
X148947095Y-57971942D01*
X148994714Y-58019561D01*
X149089952Y-58067180D01*
X149280428Y-58067180D01*
X149375666Y-58019561D01*
X149423285Y-57971942D01*
X149470904Y-57876704D01*
X149470904Y-57686228D01*
X149423285Y-57590990D01*
X149375666Y-57543371D01*
X149280428Y-57495752D01*
X152138342Y-60532342D02*
X152090723Y-60579961D01*
X151947866Y-60627580D01*
X151852628Y-60627580D01*
X151709771Y-60579961D01*
X151614533Y-60484723D01*
X151566914Y-60389485D01*
X151519295Y-60199009D01*
X151519295Y-60056152D01*
X151566914Y-59865676D01*
X151614533Y-59770438D01*
X151709771Y-59675200D01*
X151852628Y-59627580D01*
X151947866Y-59627580D01*
X152090723Y-59675200D01*
X152138342Y-59722819D01*
X152519295Y-59722819D02*
X152566914Y-59675200D01*
X152662152Y-59627580D01*
X152900247Y-59627580D01*
X152995485Y-59675200D01*
X153043104Y-59722819D01*
X153090723Y-59818057D01*
X153090723Y-59913295D01*
X153043104Y-60056152D01*
X152471676Y-60627580D01*
X153090723Y-60627580D01*
X153709771Y-59627580D02*
X153805009Y-59627580D01*
X153900247Y-59675200D01*
X153947866Y-59722819D01*
X153995485Y-59818057D01*
X154043104Y-60008533D01*
X154043104Y-60246628D01*
X153995485Y-60437104D01*
X153947866Y-60532342D01*
X153900247Y-60579961D01*
X153805009Y-60627580D01*
X153709771Y-60627580D01*
X153614533Y-60579961D01*
X153566914Y-60532342D01*
X153519295Y-60437104D01*
X153471676Y-60246628D01*
X153471676Y-60008533D01*
X153519295Y-59818057D01*
X153566914Y-59722819D01*
X153614533Y-59675200D01*
X153709771Y-59627580D01*
X121283380Y-130819695D02*
X120283380Y-130819695D01*
X120283380Y-130581600D01*
X120331000Y-130438742D01*
X120426238Y-130343504D01*
X120521476Y-130295885D01*
X120711952Y-130248266D01*
X120854809Y-130248266D01*
X121045285Y-130295885D01*
X121140523Y-130343504D01*
X121235761Y-130438742D01*
X121283380Y-130581600D01*
X121283380Y-130819695D01*
X121283380Y-129295885D02*
X121283380Y-129867314D01*
X121283380Y-129581600D02*
X120283380Y-129581600D01*
X120426238Y-129676838D01*
X120521476Y-129772076D01*
X120569095Y-129867314D01*
X131283380Y-130819695D02*
X130283380Y-130819695D01*
X130283380Y-130581600D01*
X130331000Y-130438742D01*
X130426238Y-130343504D01*
X130521476Y-130295885D01*
X130711952Y-130248266D01*
X130854809Y-130248266D01*
X131045285Y-130295885D01*
X131140523Y-130343504D01*
X131235761Y-130438742D01*
X131283380Y-130581600D01*
X131283380Y-130819695D01*
X130283380Y-129914933D02*
X130283380Y-129295885D01*
X130664333Y-129629219D01*
X130664333Y-129486361D01*
X130711952Y-129391123D01*
X130759571Y-129343504D01*
X130854809Y-129295885D01*
X131092904Y-129295885D01*
X131188142Y-129343504D01*
X131235761Y-129391123D01*
X131283380Y-129486361D01*
X131283380Y-129772076D01*
X131235761Y-129867314D01*
X131188142Y-129914933D01*
X141283380Y-130819695D02*
X140283380Y-130819695D01*
X140283380Y-130581600D01*
X140331000Y-130438742D01*
X140426238Y-130343504D01*
X140521476Y-130295885D01*
X140711952Y-130248266D01*
X140854809Y-130248266D01*
X141045285Y-130295885D01*
X141140523Y-130343504D01*
X141235761Y-130438742D01*
X141283380Y-130581600D01*
X141283380Y-130819695D01*
X141283380Y-129772076D02*
X141283380Y-129581600D01*
X141235761Y-129486361D01*
X141188142Y-129438742D01*
X141045285Y-129343504D01*
X140854809Y-129295885D01*
X140473857Y-129295885D01*
X140378619Y-129343504D01*
X140331000Y-129391123D01*
X140283380Y-129486361D01*
X140283380Y-129676838D01*
X140331000Y-129772076D01*
X140378619Y-129819695D01*
X140473857Y-129867314D01*
X140711952Y-129867314D01*
X140807190Y-129819695D01*
X140854809Y-129772076D01*
X140902428Y-129676838D01*
X140902428Y-129486361D01*
X140854809Y-129391123D01*
X140807190Y-129343504D01*
X140711952Y-129295885D01*
X151283380Y-131295885D02*
X150283380Y-131295885D01*
X150283380Y-131057790D01*
X150331000Y-130914933D01*
X150426238Y-130819695D01*
X150521476Y-130772076D01*
X150711952Y-130724457D01*
X150854809Y-130724457D01*
X151045285Y-130772076D01*
X151140523Y-130819695D01*
X151235761Y-130914933D01*
X151283380Y-131057790D01*
X151283380Y-131295885D01*
X151283380Y-129772076D02*
X151283380Y-130343504D01*
X151283380Y-130057790D02*
X150283380Y-130057790D01*
X150426238Y-130153028D01*
X150521476Y-130248266D01*
X150569095Y-130343504D01*
X150283380Y-129153028D02*
X150283380Y-129057790D01*
X150331000Y-128962552D01*
X150378619Y-128914933D01*
X150473857Y-128867314D01*
X150664333Y-128819695D01*
X150902428Y-128819695D01*
X151092904Y-128867314D01*
X151188142Y-128914933D01*
X151235761Y-128962552D01*
X151283380Y-129057790D01*
X151283380Y-129153028D01*
X151235761Y-129248266D01*
X151188142Y-129295885D01*
X151092904Y-129343504D01*
X150902428Y-129391123D01*
X150664333Y-129391123D01*
X150473857Y-129343504D01*
X150378619Y-129295885D01*
X150331000Y-129248266D01*
X150283380Y-129153028D01*
X114414571Y-80081933D02*
X114414571Y-80415266D01*
X114938380Y-80415266D02*
X113938380Y-80415266D01*
X113938380Y-79939076D01*
X114938380Y-79034314D02*
X114938380Y-79605742D01*
X114938380Y-79320028D02*
X113938380Y-79320028D01*
X114081238Y-79415266D01*
X114176476Y-79510504D01*
X114224095Y-79605742D01*
X110481380Y-85733933D02*
X111195666Y-85733933D01*
X111338523Y-85781552D01*
X111433761Y-85876790D01*
X111481380Y-86019647D01*
X111481380Y-86114885D01*
X110576619Y-85305361D02*
X110529000Y-85257742D01*
X110481380Y-85162504D01*
X110481380Y-84924409D01*
X110529000Y-84829171D01*
X110576619Y-84781552D01*
X110671857Y-84733933D01*
X110767095Y-84733933D01*
X110909952Y-84781552D01*
X111481380Y-85352980D01*
X111481380Y-84733933D01*
D14*
X157289266Y-54377333D02*
X157789266Y-54377333D01*
X157889266Y-54410666D01*
X157955933Y-54477333D01*
X157989266Y-54577333D01*
X157989266Y-54644000D01*
X157522600Y-53744000D02*
X157989266Y-53744000D01*
X157255933Y-53910666D02*
X157755933Y-54077333D01*
X157755933Y-53644000D01*
D10*
X110100380Y-115307123D02*
X110814666Y-115307123D01*
X110957523Y-115354742D01*
X111052761Y-115449980D01*
X111100380Y-115592838D01*
X111100380Y-115688076D01*
X111100380Y-114307123D02*
X111100380Y-114878552D01*
X111100380Y-114592838D02*
X110100380Y-114592838D01*
X110243238Y-114688076D01*
X110338476Y-114783314D01*
X110386095Y-114878552D01*
X110100380Y-113688076D02*
X110100380Y-113592838D01*
X110148000Y-113497600D01*
X110195619Y-113449980D01*
X110290857Y-113402361D01*
X110481333Y-113354742D01*
X110719428Y-113354742D01*
X110909904Y-113402361D01*
X111005142Y-113449980D01*
X111052761Y-113497600D01*
X111100380Y-113592838D01*
X111100380Y-113688076D01*
X111052761Y-113783314D01*
X111005142Y-113830933D01*
X110909904Y-113878552D01*
X110719428Y-113926171D01*
X110481333Y-113926171D01*
X110290857Y-113878552D01*
X110195619Y-113830933D01*
X110148000Y-113783314D01*
X110100380Y-113688076D01*
X133021476Y-134651980D02*
X133021476Y-135366266D01*
X132973857Y-135509123D01*
X132878619Y-135604361D01*
X132735761Y-135651980D01*
X132640523Y-135651980D01*
X134021476Y-135651980D02*
X133450047Y-135651980D01*
X133735761Y-135651980D02*
X133735761Y-134651980D01*
X133640523Y-134794838D01*
X133545285Y-134890076D01*
X133450047Y-134937695D01*
X134973857Y-135651980D02*
X134402428Y-135651980D01*
X134688142Y-135651980D02*
X134688142Y-134651980D01*
X134592904Y-134794838D01*
X134497666Y-134890076D01*
X134402428Y-134937695D01*
X162444180Y-127641361D02*
X162491800Y-127546123D01*
X162587038Y-127450885D01*
X162729895Y-127308028D01*
X162777514Y-127212790D01*
X162777514Y-127117552D01*
X162539419Y-127165171D02*
X162587038Y-127069933D01*
X162682276Y-126974695D01*
X162872752Y-126927076D01*
X163206085Y-126927076D01*
X163396561Y-126974695D01*
X163491800Y-127069933D01*
X163539419Y-127165171D01*
X163539419Y-127355647D01*
X163491800Y-127450885D01*
X163396561Y-127546123D01*
X163206085Y-127593742D01*
X162872752Y-127593742D01*
X162682276Y-127546123D01*
X162587038Y-127450885D01*
X162539419Y-127355647D01*
X162539419Y-127165171D01*
X162539419Y-128546123D02*
X162539419Y-127974695D01*
X162539419Y-128260409D02*
X163539419Y-128260409D01*
X163396561Y-128165171D01*
X163301323Y-128069933D01*
X163253704Y-127974695D01*
X164952380Y-121092976D02*
X164476190Y-121426309D01*
X164952380Y-121664404D02*
X163952380Y-121664404D01*
X163952380Y-121283452D01*
X164000000Y-121188214D01*
X164047619Y-121140595D01*
X164142857Y-121092976D01*
X164285714Y-121092976D01*
X164380952Y-121140595D01*
X164428571Y-121188214D01*
X164476190Y-121283452D01*
X164476190Y-121664404D01*
X164952380Y-120140595D02*
X164952380Y-120712023D01*
X164952380Y-120426309D02*
X163952380Y-120426309D01*
X164095238Y-120521547D01*
X164190476Y-120616785D01*
X164238095Y-120712023D01*
X116164333Y-123963980D02*
X115831000Y-123487790D01*
X115592904Y-123963980D02*
X115592904Y-122963980D01*
X115973857Y-122963980D01*
X116069095Y-123011600D01*
X116116714Y-123059219D01*
X116164333Y-123154457D01*
X116164333Y-123297314D01*
X116116714Y-123392552D01*
X116069095Y-123440171D01*
X115973857Y-123487790D01*
X115592904Y-123487790D01*
X116545285Y-123059219D02*
X116592904Y-123011600D01*
X116688142Y-122963980D01*
X116926238Y-122963980D01*
X117021476Y-123011600D01*
X117069095Y-123059219D01*
X117116714Y-123154457D01*
X117116714Y-123249695D01*
X117069095Y-123392552D01*
X116497666Y-123963980D01*
X117116714Y-123963980D01*
X160098980Y-112282266D02*
X159622790Y-112615600D01*
X160098980Y-112853695D02*
X159098980Y-112853695D01*
X159098980Y-112472742D01*
X159146600Y-112377504D01*
X159194219Y-112329885D01*
X159289457Y-112282266D01*
X159432314Y-112282266D01*
X159527552Y-112329885D01*
X159575171Y-112377504D01*
X159622790Y-112472742D01*
X159622790Y-112853695D01*
X159098980Y-111948933D02*
X159098980Y-111329885D01*
X159479933Y-111663219D01*
X159479933Y-111520361D01*
X159527552Y-111425123D01*
X159575171Y-111377504D01*
X159670409Y-111329885D01*
X159908504Y-111329885D01*
X160003742Y-111377504D01*
X160051361Y-111425123D01*
X160098980Y-111520361D01*
X160098980Y-111806076D01*
X160051361Y-111901314D01*
X160003742Y-111948933D01*
X160952380Y-121092976D02*
X160476190Y-121426309D01*
X160952380Y-121664404D02*
X159952380Y-121664404D01*
X159952380Y-121283452D01*
X160000000Y-121188214D01*
X160047619Y-121140595D01*
X160142857Y-121092976D01*
X160285714Y-121092976D01*
X160380952Y-121140595D01*
X160428571Y-121188214D01*
X160476190Y-121283452D01*
X160476190Y-121664404D01*
X160285714Y-120235833D02*
X160952380Y-120235833D01*
X159904761Y-120473928D02*
X160619047Y-120712023D01*
X160619047Y-120092976D01*
X158952380Y-121092976D02*
X158476190Y-121426309D01*
X158952380Y-121664404D02*
X157952380Y-121664404D01*
X157952380Y-121283452D01*
X158000000Y-121188214D01*
X158047619Y-121140595D01*
X158142857Y-121092976D01*
X158285714Y-121092976D01*
X158380952Y-121140595D01*
X158428571Y-121188214D01*
X158476190Y-121283452D01*
X158476190Y-121664404D01*
X157952380Y-120188214D02*
X157952380Y-120664404D01*
X158428571Y-120712023D01*
X158380952Y-120664404D01*
X158333333Y-120569166D01*
X158333333Y-120331071D01*
X158380952Y-120235833D01*
X158428571Y-120188214D01*
X158523809Y-120140595D01*
X158761904Y-120140595D01*
X158857142Y-120188214D01*
X158904761Y-120235833D01*
X158952380Y-120331071D01*
X158952380Y-120569166D01*
X158904761Y-120664404D01*
X158857142Y-120712023D01*
X128392380Y-104377866D02*
X127916190Y-104711200D01*
X128392380Y-104949295D02*
X127392380Y-104949295D01*
X127392380Y-104568342D01*
X127440000Y-104473104D01*
X127487619Y-104425485D01*
X127582857Y-104377866D01*
X127725714Y-104377866D01*
X127820952Y-104425485D01*
X127868571Y-104473104D01*
X127916190Y-104568342D01*
X127916190Y-104949295D01*
X127392380Y-103520723D02*
X127392380Y-103711200D01*
X127440000Y-103806438D01*
X127487619Y-103854057D01*
X127630476Y-103949295D01*
X127820952Y-103996914D01*
X128201904Y-103996914D01*
X128297142Y-103949295D01*
X128344761Y-103901676D01*
X128392380Y-103806438D01*
X128392380Y-103615961D01*
X128344761Y-103520723D01*
X128297142Y-103473104D01*
X128201904Y-103425485D01*
X127963809Y-103425485D01*
X127868571Y-103473104D01*
X127820952Y-103520723D01*
X127773333Y-103615961D01*
X127773333Y-103806438D01*
X127820952Y-103901676D01*
X127868571Y-103949295D01*
X127963809Y-103996914D01*
X126164333Y-123963980D02*
X125831000Y-123487790D01*
X125592904Y-123963980D02*
X125592904Y-122963980D01*
X125973857Y-122963980D01*
X126069095Y-123011600D01*
X126116714Y-123059219D01*
X126164333Y-123154457D01*
X126164333Y-123297314D01*
X126116714Y-123392552D01*
X126069095Y-123440171D01*
X125973857Y-123487790D01*
X125592904Y-123487790D01*
X126735761Y-123392552D02*
X126640523Y-123344933D01*
X126592904Y-123297314D01*
X126545285Y-123202076D01*
X126545285Y-123154457D01*
X126592904Y-123059219D01*
X126640523Y-123011600D01*
X126735761Y-122963980D01*
X126926238Y-122963980D01*
X127021476Y-123011600D01*
X127069095Y-123059219D01*
X127116714Y-123154457D01*
X127116714Y-123202076D01*
X127069095Y-123297314D01*
X127021476Y-123344933D01*
X126926238Y-123392552D01*
X126735761Y-123392552D01*
X126640523Y-123440171D01*
X126592904Y-123487790D01*
X126545285Y-123583028D01*
X126545285Y-123773504D01*
X126592904Y-123868742D01*
X126640523Y-123916361D01*
X126735761Y-123963980D01*
X126926238Y-123963980D01*
X127021476Y-123916361D01*
X127069095Y-123868742D01*
X127116714Y-123773504D01*
X127116714Y-123583028D01*
X127069095Y-123487790D01*
X127021476Y-123440171D01*
X126926238Y-123392552D01*
X136164333Y-123963980D02*
X135831000Y-123487790D01*
X135592904Y-123963980D02*
X135592904Y-122963980D01*
X135973857Y-122963980D01*
X136069095Y-123011600D01*
X136116714Y-123059219D01*
X136164333Y-123154457D01*
X136164333Y-123297314D01*
X136116714Y-123392552D01*
X136069095Y-123440171D01*
X135973857Y-123487790D01*
X135592904Y-123487790D01*
X136640523Y-123963980D02*
X136831000Y-123963980D01*
X136926238Y-123916361D01*
X136973857Y-123868742D01*
X137069095Y-123725885D01*
X137116714Y-123535409D01*
X137116714Y-123154457D01*
X137069095Y-123059219D01*
X137021476Y-123011600D01*
X136926238Y-122963980D01*
X136735761Y-122963980D01*
X136640523Y-123011600D01*
X136592904Y-123059219D01*
X136545285Y-123154457D01*
X136545285Y-123392552D01*
X136592904Y-123487790D01*
X136640523Y-123535409D01*
X136735761Y-123583028D01*
X136926238Y-123583028D01*
X137021476Y-123535409D01*
X137069095Y-123487790D01*
X137116714Y-123392552D01*
X162952380Y-121092976D02*
X162476190Y-121426309D01*
X162952380Y-121664404D02*
X161952380Y-121664404D01*
X161952380Y-121283452D01*
X162000000Y-121188214D01*
X162047619Y-121140595D01*
X162142857Y-121092976D01*
X162285714Y-121092976D01*
X162380952Y-121140595D01*
X162428571Y-121188214D01*
X162476190Y-121283452D01*
X162476190Y-121664404D01*
X162952380Y-120140595D02*
X162952380Y-120712023D01*
X162952380Y-120426309D02*
X161952380Y-120426309D01*
X162095238Y-120521547D01*
X162190476Y-120616785D01*
X162238095Y-120712023D01*
X161952380Y-119521547D02*
X161952380Y-119426309D01*
X162000000Y-119331071D01*
X162047619Y-119283452D01*
X162142857Y-119235833D01*
X162333333Y-119188214D01*
X162571428Y-119188214D01*
X162761904Y-119235833D01*
X162857142Y-119283452D01*
X162904761Y-119331071D01*
X162952380Y-119426309D01*
X162952380Y-119521547D01*
X162904761Y-119616785D01*
X162857142Y-119664404D01*
X162761904Y-119712023D01*
X162571428Y-119759642D01*
X162333333Y-119759642D01*
X162142857Y-119712023D01*
X162047619Y-119664404D01*
X162000000Y-119616785D01*
X161952380Y-119521547D01*
X145688142Y-123963980D02*
X145354809Y-123487790D01*
X145116714Y-123963980D02*
X145116714Y-122963980D01*
X145497666Y-122963980D01*
X145592904Y-123011600D01*
X145640523Y-123059219D01*
X145688142Y-123154457D01*
X145688142Y-123297314D01*
X145640523Y-123392552D01*
X145592904Y-123440171D01*
X145497666Y-123487790D01*
X145116714Y-123487790D01*
X146640523Y-123963980D02*
X146069095Y-123963980D01*
X146354809Y-123963980D02*
X146354809Y-122963980D01*
X146259571Y-123106838D01*
X146164333Y-123202076D01*
X146069095Y-123249695D01*
X146973857Y-122963980D02*
X147640523Y-122963980D01*
X147211952Y-123963980D01*
X129553180Y-111458057D02*
X129076990Y-111791390D01*
X129553180Y-112029485D02*
X128553180Y-112029485D01*
X128553180Y-111648533D01*
X128600800Y-111553295D01*
X128648419Y-111505676D01*
X128743657Y-111458057D01*
X128886514Y-111458057D01*
X128981752Y-111505676D01*
X129029371Y-111553295D01*
X129076990Y-111648533D01*
X129076990Y-112029485D01*
X128553180Y-111124723D02*
X128553180Y-110505676D01*
X128934133Y-110839009D01*
X128934133Y-110696152D01*
X128981752Y-110600914D01*
X129029371Y-110553295D01*
X129124609Y-110505676D01*
X129362704Y-110505676D01*
X129457942Y-110553295D01*
X129505561Y-110600914D01*
X129553180Y-110696152D01*
X129553180Y-110981866D01*
X129505561Y-111077104D01*
X129457942Y-111124723D01*
X129553180Y-109553295D02*
X129553180Y-110124723D01*
X129553180Y-109839009D02*
X128553180Y-109839009D01*
X128696038Y-109934247D01*
X128791276Y-110029485D01*
X128838895Y-110124723D01*
X112585866Y-42478361D02*
X112728723Y-42525980D01*
X112966819Y-42525980D01*
X113062057Y-42478361D01*
X113109676Y-42430742D01*
X113157295Y-42335504D01*
X113157295Y-42240266D01*
X113109676Y-42145028D01*
X113062057Y-42097409D01*
X112966819Y-42049790D01*
X112776342Y-42002171D01*
X112681104Y-41954552D01*
X112633485Y-41906933D01*
X112585866Y-41811695D01*
X112585866Y-41716457D01*
X112633485Y-41621219D01*
X112681104Y-41573600D01*
X112776342Y-41525980D01*
X113014438Y-41525980D01*
X113157295Y-41573600D01*
X113490628Y-41525980D02*
X113728723Y-42525980D01*
X113919200Y-41811695D01*
X114109676Y-42525980D01*
X114347771Y-41525980D01*
X115252533Y-42525980D02*
X114681104Y-42525980D01*
X114966819Y-42525980D02*
X114966819Y-41525980D01*
X114871580Y-41668838D01*
X114776342Y-41764076D01*
X114681104Y-41811695D01*
X118559980Y-87802704D02*
X119369504Y-87802704D01*
X119464742Y-87755085D01*
X119512361Y-87707466D01*
X119559980Y-87612228D01*
X119559980Y-87421752D01*
X119512361Y-87326514D01*
X119464742Y-87278895D01*
X119369504Y-87231276D01*
X118559980Y-87231276D01*
X118655219Y-86802704D02*
X118607600Y-86755085D01*
X118559980Y-86659847D01*
X118559980Y-86421752D01*
X118607600Y-86326514D01*
X118655219Y-86278895D01*
X118750457Y-86231276D01*
X118845695Y-86231276D01*
X118988552Y-86278895D01*
X119559980Y-86850323D01*
X119559980Y-86231276D01*
X169192876Y-70382780D02*
X169192876Y-71097066D01*
X169145257Y-71239923D01*
X169050019Y-71335161D01*
X168907161Y-71382780D01*
X168811923Y-71382780D01*
X170192876Y-71382780D02*
X169621447Y-71382780D01*
X169907161Y-71382780D02*
X169907161Y-70382780D01*
X169811923Y-70525638D01*
X169716685Y-70620876D01*
X169621447Y-70668495D01*
X170573828Y-70478019D02*
X170621447Y-70430400D01*
X170716685Y-70382780D01*
X170954780Y-70382780D01*
X171050019Y-70430400D01*
X171097638Y-70478019D01*
X171145257Y-70573257D01*
X171145257Y-70668495D01*
X171097638Y-70811352D01*
X170526209Y-71382780D01*
X171145257Y-71382780D01*
M02*
