M48
;DRILL file {KiCad (5.0.1)-3} date 1/31/2019 11:57:16 PM
;FORMAT={-:-/ absolute / metric / decimal}
FMAT,2
METRIC,TZ
T1C0.300
T2C0.400
T3C0.500
T4C0.762
T5C1.000
T6C1.300
T7C1.400
T8C1.650
T9C3.500
%
G90
G05
M71
T1
X143.307Y-124.536
X149.403Y-125.679
X154.1Y-111.
X154.5Y-109.3
X154.9Y-110.3
X159.498Y-125.564
X164.451Y-125.335
X169.418Y-125.273
X172.199Y-117.119
X173.304Y-117.805
X174.168Y-118.643
X174.447Y-125.425
X174.803Y-119.39
X175.692Y-120.015
X176.403Y-120.853
X177.076Y-121.549
X177.724Y-122.174
X179.437Y-125.335
T2
X105.531Y-101.263
X106.451Y-97.282
X106.553Y-96.266
X110.3Y-123.5
X110.846Y-92.837
X111.608Y-112.522
X112.5Y-94.4
X114.6Y-81.3
X114.8Y-116.8
X116.Y-93.5
X118.008Y-124.765
X118.275Y-88.697
X118.859Y-114.897
X119.1Y-79.8
X119.707Y-97.831
X119.723Y-113.182
X122.2Y-114.2
X122.7Y-101.3
X122.8Y-99.
X123.7Y-99.6
X124.6Y-99.
X125.057Y-110.96
X125.5Y-99.6
X125.8Y-117.6
X126.8Y-123.8
X127.Y-88.3
X127.8Y-101.7
X128.7Y-98.8
X128.9Y-117.8
X129.Y-91.3
X129.763Y-92.363
X132.1Y-92.
X134.054Y-97.946
X134.1Y-90.7
X134.2Y-103.3
X134.544Y-123.787
X135.306Y-135.865
X136.049Y-105.929
X136.4Y-108.6
X136.887Y-105.187
X137.1Y-114.3
X137.7Y-108.4
X137.9Y-107.4
X139.5Y-107.5
X140.056Y-147.422
X140.1Y-108.5
X140.6Y-116.7
X142.5Y-109.8
X142.6Y-114.5
X142.8Y-116.
X143.1Y-105.7
X143.2Y-113.2
X143.5Y-109.1
X145.05Y-115.3
X146.Y-84.7
X146.101Y-147.422
X146.304Y-131.789
X146.607Y-115.107
X147.004Y-108.9
X147.041Y-117.094
X147.4Y-112.5
X151.079Y-147.422
X151.1Y-103.5
X151.13Y-131.789
X154.432Y-125.527
X155.6Y-82.3
X156.096Y-131.789
X156.108Y-147.422
X157.3Y-105.5
X158.257Y-113.17
X159.2Y-92.1
X160.1Y-114.7
X160.4Y-88.116
X161.087Y-131.789
X161.087Y-147.422
X161.1Y-117.069
X161.3Y-84.6
X161.5Y-114.8
X162.5Y-117.4
X163.4Y-106.3
X166.04Y-131.789
X166.116Y-147.422
X167.Y-118.1
X171.056Y-131.789
X171.094Y-147.422
X176.073Y-147.422
X176.098Y-131.789
X177.5Y-67.8
X178.Y-80.8
X178.1Y-66.9
X178.9Y-62.7
X181.Y-84.938
X181.Y-89.967
X181.Y-94.945
X181.Y-99.924
X181.Y-104.902
X181.Y-109.982
X181.Y-114.96
X181.Y-119.888
X182.715Y-129.586
X183.2Y-62.7
X184.9Y-74.74
X186.9Y-79.7
X189.Y-83.3
X128.778Y-65.722
X190.475Y-142.933
X118.618Y-57.15
X106.718Y-111.849
X128.778Y-57.15
X156.337Y-97.409
X105.537Y-66.853
X147.828Y-95.25
X156.337Y-99.187
X144.018Y-65.722
X110.998Y-65.722
X129.3Y-100.1
X116.1Y-65.722
X123.698Y-57.15
X187.554Y-129.934
X136.906Y-93.98
X131.318Y-57.15
X105.823Y-86.488
X143.383Y-93.98
X152.8Y-97.5
X126.403Y-112.954
X111.83Y-80.185
X144.272Y-95.25
X154.4Y-97.5
X146.558Y-65.722
X126.238Y-65.722
X153.594Y-120.129
X156.337Y-100.965
X157.607Y-100.076
X151.905Y-119.52
X131.318Y-65.722
X123.698Y-65.722
X127.5Y-117.1
X127.673Y-113.843
X151.1Y-97.5
X111.201Y-50.876
X144.018Y-57.15
X137.795Y-95.25
X157.277Y-120.472
X136.017Y-95.25
X171.146Y-114.41
X126.238Y-57.15
X157.607Y-98.298
X126.555Y-119.913
X127.673Y-112.065
X124.689Y-114.795
X102.057Y-66.853
X138.938Y-65.722
X141.478Y-57.15
X121.158Y-57.15
X138.684Y-93.98
X171.146Y-106.79
X141.351Y-95.25
X139.573Y-95.25
X106.2Y-98.463
X190.475Y-146.533
X133.858Y-65.722
X156.337Y-104.521
X146.05Y-95.25
X126.403Y-111.176
X146.939Y-93.98
X146.558Y-57.15
X141.478Y-65.722
X121.158Y-65.722
X135.6Y-92.1
X171.146Y-104.25
X171.146Y-111.87
X130.5Y-99.1
X105.918Y-116.649
X188.29Y-128.46
X111.83Y-73.454
X132.2Y-118.5
X157.607Y-101.854
X157.607Y-103.632
X132.6Y-100.5
X138.938Y-57.15
X140.462Y-93.98
X113.538Y-57.15
X118.618Y-65.722
X133.858Y-57.15
X171.231Y-109.33
X155.423Y-120.688
X136.398Y-65.722
X104.648Y-113.919
X137.731Y-80.067
X112.331Y-51.841
X156.337Y-102.743
X145.161Y-93.98
X103.835Y-66.853
X136.4Y-57.15
X116.078Y-57.15
X110.998Y-57.15
X113.538Y-65.722
T4
X150.74Y-56.75
X150.74Y-59.29
X150.74Y-61.83
X150.74Y-64.37
X150.74Y-66.91
X150.74Y-69.45
X150.74Y-71.99
X150.74Y-74.53
X150.74Y-77.07
X150.74Y-79.61
X150.74Y-82.15
X150.74Y-84.69
X171.06Y-56.75
X171.06Y-59.29
X171.06Y-61.83
X171.06Y-64.37
X171.06Y-66.91
X171.06Y-69.45
X171.06Y-71.99
X171.06Y-74.53
X171.06Y-77.07
X171.06Y-79.61
X171.06Y-82.15
X171.06Y-84.69
X171.06Y-87.23
X171.06Y-89.77
X171.06Y-92.31
X171.06Y-94.85
T5
X118.354Y-118.137
X118.354Y-120.677
X120.894Y-118.137
X120.894Y-120.677
X123.434Y-118.137
X123.434Y-120.677
X103.232Y-70.529
X103.232Y-73.069
X103.232Y-75.609
X103.232Y-78.149
X103.232Y-80.689
X105.772Y-70.529
X105.772Y-73.069
X105.772Y-75.609
X105.772Y-78.149
X105.772Y-80.689
X110.299Y-104.559
X110.299Y-107.099
X112.84Y-104.559
X112.84Y-107.099
X111.Y-60.05
X111.Y-62.59
X113.54Y-60.05
X113.54Y-62.59
X116.08Y-60.05
X116.08Y-62.59
X118.62Y-60.05
X118.62Y-62.59
X121.16Y-60.05
X121.16Y-62.59
X123.7Y-60.05
X123.7Y-62.59
X126.24Y-60.05
X126.24Y-62.59
X128.78Y-60.05
X128.78Y-62.59
X131.32Y-60.05
X131.32Y-62.59
X133.86Y-60.05
X133.86Y-62.59
X136.4Y-60.05
X136.4Y-62.59
X138.94Y-60.05
X138.94Y-62.59
X141.48Y-60.05
X141.48Y-62.59
X144.02Y-60.05
X144.02Y-62.59
X146.56Y-60.05
X146.56Y-62.59
X123.342Y-73.609
X125.882Y-73.609
X128.422Y-73.609
X130.962Y-73.609
X133.502Y-73.609
X113.901Y-123.236
X113.901Y-125.776
X113.901Y-128.316
X103.232Y-52.749
X103.232Y-55.289
X103.232Y-57.829
X103.232Y-60.369
X103.232Y-62.909
X105.772Y-52.749
X105.772Y-55.289
X105.772Y-57.829
X105.772Y-60.369
X105.772Y-62.909
X128.491Y-80.092
X131.031Y-80.092
X133.571Y-80.092
X183.712Y-54.856
X186.212Y-54.856
X165.7Y-104.25
X165.7Y-106.79
X165.7Y-109.33
X165.7Y-111.87
X165.7Y-114.41
X168.24Y-104.25
X168.24Y-106.79
X168.24Y-109.33
X168.24Y-111.87
X168.24Y-114.41
X126.543Y-86.157
X129.083Y-86.157
X131.623Y-86.157
X134.163Y-86.157
X136.703Y-86.157
X118.02Y-105.063
X118.02Y-107.603
X120.56Y-105.063
X120.56Y-107.603
X123.1Y-105.063
X123.1Y-107.603
T6
X194.3Y-85.8
X194.3Y-90.8
X194.3Y-95.8
X194.3Y-100.8
X194.3Y-105.8
X194.3Y-110.8
X194.3Y-115.8
X194.3Y-120.8
X143.6Y-144.3
X148.6Y-144.3
X153.6Y-144.3
X158.6Y-144.3
X163.6Y-144.3
X168.6Y-144.3
X173.6Y-144.3
X178.6Y-144.3
X194.3Y-129.7
X194.3Y-134.7
T7
X121.904Y-140.761
X121.904Y-146.261
X126.104Y-140.761
X126.104Y-146.261
X130.304Y-140.761
X130.304Y-146.261
X106.504Y-140.761
X106.504Y-146.261
X110.704Y-140.761
X110.704Y-146.261
X114.904Y-140.761
X114.904Y-146.261
T8
X186.675Y-134.773
X186.675Y-138.433
X186.675Y-142.903
X186.675Y-146.563
T9
X96.Y-57.05
X196.Y-57.05
X96.Y-142.95
X196.Y-142.95
T3
X101.75Y-94.063G85X101.05Y-94.063
G05
X101.75Y-100.663G85X101.05Y-100.663
G05
T0
M30
